0
SECTION
2
HEADER
9
$ACADVER
1
AC1009
9
$CLAYER
8
0
0
ENDSEC
0
SECTION
2
TABLES
0
TABLE
2
LTYPE
70
8
0
LTYPE
2
CONTINUOUS
70
0
3
Solid line
72
65
73
0
40
0.0
0
LTYPE
2
DASHED
70
0
3
__ __ __ __ __ __ __ __ __ __ __ __ __ __ __ __
72
65
73
2
40
0.75
49
0.5
49
-0.25
0
LTYPE
2
CENTER2
70
0
3
____ _ ____ _ ____ _ ____ _ ____ _ ____ _ ____ 
72
65
73
4
40
2.0
49
1.25
49
-0.25
49
0.25
49
-0.25
0
ENDTAB
0
TABLE
2
LAYER
70
14
0
LAYER
2
0
70
0
62
7
6
CONTINUOUS
0
LAYER
2
DISTXT
70
0
62
7
6
CONTINUOUS
0
LAYER
2
EXISTING
70
0
62
2
6
DASHED
0
LAYER
2
FINAL
70
0
62
1
6
CONTINUOUS
0
LAYER
2
PNTDESC
70
0
62
3
6
CONTINUOUS
0
LAYER
2
PNTELEV
70
1
62
5
6
CONTINUOUS
0
LAYER
2
PNTMARK
70
0
62
1
6
CONTINUOUS
0
LAYER
2
PNTNO
70
0
62
7
6
CONTINUOUS
0
LAYER
2
PNTS
70
0
62
1
6
CONTINUOUS
0
LAYER
2
DATABASE
70
0
62
7
6
CONTINUOUS
0
LAYER
2
LINEWORK
70
0
62
7
6
CONTINUOUS
0
LAYER
2
DEFAULT
70
0
62
7
6
CONTINUOUS
0
ENDTAB
0
TABLE
2
APPID
70
8
0
APPID
2
CGISCE_GIS_2000
70
0
0
APPID
2
CGISCE_F2F_2000
70
0
0
APPID
2
CGISCE_F2FC_2000
70
0
0
APPID
2
CGISCE_IMG_2000
70
0
0
ENDTAB
0
ENDSEC
0
SECTION
2
ENTITIES
0
LINE
8
DEFAULT
10
1379618.2100000000000000
20
4903677.3700000001000000
30
0.0000000000000000
11
1379459.8999999999000000
21
4904051.1299999999000000
31
0.0000000000000000
0
LINE
8
DEFAULT
10
1382699.2100000000000000
20
4896847.3499999996000000
30
0.0000000000000000
11
1382503.7800000000000000
21
4896740.3300000001000000
31
0.0000000000000000
0
LINE
8
DEFAULT
10
1382699.2100000000000000
20
4896847.3499999996000000
30
0.0000000000000000
11
1382503.7800000000000000
21
4896740.3300000001000000
31
0.0000000000000000
0
LINE
8
DEFAULT
10
1381422.5900000001000000
20
4900326.4900000002000000
30
0.0000000000000000
11
1381221.8799999999000000
21
4900152.9299999997000000
31
0.0000000000000000
0
LINE
8
DEFAULT
10
1379073.2100000000000000
20
4902976.6299999999000000
30
0.0000000000000000
11
1379072.6000000001000000
21
4902818.2599999998000000
31
0.0000000000000000
0
LINE
8
DEFAULT
10
1380314.2900000000000000
20
4904268.1100000003000000
30
0.0000000000000000
11
1379816.4199999999000000
21
4904681.7100000000000000
31
0.0000000000000000
0
LINE
8
DEFAULT
10
1378923.8000000000000000
20
4903071.4900000002000000
30
0.0000000000000000
11
1378830.1899999999000000
21
4903034.6900000004000000
31
0.0000000000000000
0
LINE
8
DEFAULT
10
1381158.6399999999000000
20
4904770.7300000004000000
30
0.0000000000000000
11
1380988.3799999999000000
21
4904944.1600000001000000
31
0.0000000000000000
0
LINE
8
DEFAULT
10
1381546.9600000000000000
20
4905130.6100000003000000
30
0.0000000000000000
11
1381358.6100000001000000
21
4905497.5400000000000000
31
0.0000000000000000
0
LINE
8
DEFAULT
10
1381897.6599999999000000
20
4905482.5700000003000000
30
0.0000000000000000
11
1381835.0000000000000000
21
4905567.5700000003000000
31
0.0000000000000000
0
LINE
8
DEFAULT
10
1382452.5800000001000000
20
4905981.2500000000000000
30
0.0000000000000000
11
1382253.5600000001000000
21
4906122.0800000001000000
31
0.0000000000000000
0
LINE
8
DEFAULT
10
1382622.1000000001000000
20
4906283.8899999997000000
30
0.0000000000000000
11
1382426.3000000000000000
21
4906400.6200000001000000
31
0.0000000000000000
0
LINE
8
DEFAULT
10
1382810.7500000000000000
20
4906633.0800000001000000
30
0.0000000000000000
11
1382486.6100000001000000
21
4906826.3399999999000000
31
0.0000000000000000
0
LINE
8
DEFAULT
10
1382622.1000000001000000
20
4906283.8899999997000000
30
0.0000000000000000
11
1382426.3000000000000000
21
4906400.6200000001000000
31
0.0000000000000000
0
LINE
8
DEFAULT
10
1382935.9500000000000000
20
4906927.4100000001000000
30
0.0000000000000000
11
1382449.1799999999000000
21
4906901.1399999997000000
31
0.0000000000000000
0
LINE
8
DEFAULT
10
1382679.1599999999000000
20
4907078.5599999996000000
30
0.0000000000000000
11
1382847.6899999999000000
21
4907144.4000000004000000
31
0.0000000000000000
0
LINE
8
DEFAULT
10
1382595.8400000001000000
20
4907241.4800000004000000
30
0.0000000000000000
11
1382442.1100000001000000
21
4907091.9199999999000000
31
0.0000000000000000
0
LINE
8
DEFAULT
10
1382614.0600000001000000
20
4907258.8099999996000000
30
0.0000000000000000
11
1382290.1899999999000000
21
4907203.2699999996000000
31
0.0000000000000000
0
LINE
8
DEFAULT
10
1382791.7400000000000000
20
4907460.2500000000000000
30
0.0000000000000000
11
1382662.5800000001000000
21
4907584.9600000000000000
31
0.0000000000000000
0
LINE
8
DEFAULT
10
1383153.0400000000000000
20
4907804.9699999997000000
30
0.0000000000000000
11
1382582.7800000000000000
21
4907942.9699999997000000
31
0.0000000000000000
0
LINE
8
DEFAULT
10
1383414.4500000000000000
20
4908075.6200000001000000
30
0.0000000000000000
11
1382832.0300000000000000
21
4908638.8499999996000000
31
0.0000000000000000
0
LINE
8
DEFAULT
10
1384247.0600000001000000
20
4908845.7800000003000000
30
0.0000000000000000
11
1383816.8999999999000000
21
4909250.7000000002000000
31
0.0000000000000000
0
LINE
8
DEFAULT
10
1384469.9399999999000000
20
4909062.8399999999000000
30
0.0000000000000000
11
1383988.1299999999000000
21
4909352.6100000003000000
31
0.0000000000000000
0
LINE
8
DEFAULT
10
1384661.2900000000000000
20
4909248.2999999998000000
30
0.0000000000000000
11
1384088.1200000001000000
21
4909733.4299999997000000
31
0.0000000000000000
0
LINE
8
DEFAULT
10
1384805.0800000001000000
20
4909979.1799999997000000
30
0.0000000000000000
11
1384639.6599999999000000
21
4910142.6299999999000000
31
0.0000000000000000
0
LINE
8
DEFAULT
10
1385642.2500000000000000
20
4910083.4800000004000000
30
0.0000000000000000
11
1385128.2300000000000000
21
4910614.5599999996000000
31
0.0000000000000000
0
LINE
8
DEFAULT
10
1385521.9700000000000000
20
4910810.2699999996000000
30
0.0000000000000000
11
1385422.3899999999000000
21
4910914.4100000001000000
31
0.0000000000000000
0
LINE
8
DEFAULT
10
1386096.0200000000000000
20
4910820.4900000002000000
30
0.0000000000000000
11
1385665.1000000001000000
21
4911084.6500000004000000
31
0.0000000000000000
0
LINE
8
DEFAULT
10
1385956.3899999999000000
20
4911436.8700000001000000
30
0.0000000000000000
11
1385778.3799999999000000
21
4911625.4100000001000000
31
0.0000000000000000
0
LINE
8
DEFAULT
10
1386363.1399999999000000
20
4911458.0599999996000000
30
0.0000000000000000
11
1386180.6799999999000000
21
4911683.4699999997000000
31
0.0000000000000000
0
LINE
8
DEFAULT
10
1386853.0000000000000000
20
4911412.2000000002000000
30
0.0000000000000000
11
1386704.1599999999000000
21
4911854.3700000001000000
31
0.0000000000000000
0
LINE
8
DEFAULT
10
1387320.4900000000000000
20
4911699.8300000001000000
30
0.0000000000000000
11
1387069.9900000000000000
21
4912008.4699999997000000
31
0.0000000000000000
0
LINE
8
DEFAULT
10
1387553.6799999999000000
20
4911929.7000000002000000
30
0.0000000000000000
11
1387329.6499999999000000
21
4912145.1100000003000000
31
0.0000000000000000
0
LINE
8
DEFAULT
10
1387701.2700000000000000
20
4912062.7599999998000000
30
0.0000000000000000
11
1387590.4500000000000000
21
4912263.9900000002000000
31
0.0000000000000000
0
LINE
8
DEFAULT
10
1387924.1100000001000000
20
4912216.9100000001000000
30
0.0000000000000000
11
1387364.7700000000000000
21
4912497.0099999998000000
31
0.0000000000000000
0
LINE
8
DEFAULT
10
1387798.4700000000000000
20
4912777.7000000002000000
30
0.0000000000000000
11
1387343.1699999999000000
21
4912584.1200000001000000
31
0.0000000000000000
0
LINE
8
DEFAULT
10
1387902.0500000000000000
20
4912955.7999999998000000
30
0.0000000000000000
11
1387228.6200000001000000
21
4912880.6200000001000000
31
0.0000000000000000
0
LINE
8
DEFAULT
10
1388013.0300000000000000
20
4913289.3600000003000000
30
0.0000000000000000
11
1387694.8300000001000000
21
4913587.9699999997000000
31
0.0000000000000000
0
LINE
8
DEFAULT
10
1387393.2000000000000000
20
4913099.9800000004000000
30
0.0000000000000000
11
1387417.4399999999000000
21
4913533.2100000000000000
31
0.0000000000000000
0
LINE
8
DEFAULT
10
1387921.9199999999000000
20
4913114.2900000000000000
30
0.0000000000000000
11
1387140.3999999999000000
21
4913335.9400000004000000
31
0.0000000000000000
0
LINE
8
DEFAULT
10
1388278.0600000001000000
20
4913639.3600000003000000
30
0.0000000000000000
11
1387911.1299999999000000
21
4913811.3399999999000000
31
0.0000000000000000
0
LINE
8
DEFAULT
10
1388351.9299999999000000
20
4913806.0400000000000000
30
0.0000000000000000
11
1387935.5600000001000000
21
4913987.2199999997000000
31
0.0000000000000000
0
LINE
8
DEFAULT
10
1388283.1799999999000000
20
4914416.2500000000000000
30
0.0000000000000000
11
1388064.7100000000000000
21
4914280.7000000002000000
31
0.0000000000000000
0
LINE
8
DEFAULT
10
1388224.9199999999000000
20
4914530.3700000001000000
30
0.0000000000000000
11
1387896.2000000000000000
21
4914397.5800000001000000
31
0.0000000000000000
0
LINE
8
DEFAULT
10
1387783.0100000000000000
20
4914722.4199999999000000
30
0.0000000000000000
11
1387543.6299999999000000
21
4914651.3600000003000000
31
0.0000000000000000
0
LINE
8
DEFAULT
10
1387720.0000000000000000
20
4914955.8300000001000000
30
0.0000000000000000
11
1387514.8899999999000000
21
4914904.9900000002000000
31
0.0000000000000000
0
LINE
8
DEFAULT
10
1387552.1299999999000000
20
4915144.0199999996000000
30
0.0000000000000000
11
1387418.6499999999000000
21
4915084.7199999997000000
31
0.0000000000000000
0
LINE
8
DEFAULT
10
1387309.9900000000000000
20
4915376.9000000004000000
30
0.0000000000000000
11
1387233.5600000001000000
21
4915267.1100000003000000
31
0.0000000000000000
0
LINE
8
DEFAULT
10
1387052.0100000000000000
20
4915524.4900000002000000
30
0.0000000000000000
11
1387001.1799999999000000
21
4915397.9000000004000000
31
0.0000000000000000
0
LINE
8
DEFAULT
10
1386959.1799999999000000
20
4915895.8300000001000000
30
0.0000000000000000
11
1386837.4700000000000000
21
4915960.7999999998000000
31
0.0000000000000000
0
LINE
8
DEFAULT
10
1386912.5900000001000000
20
4915683.1799999997000000
30
0.0000000000000000
11
1386765.7200000000000000
21
4915618.2500000000000000
31
0.0000000000000000
0
LINE
8
DEFAULT
10
1387143.8999999999000000
20
4916167.4900000002000000
30
0.0000000000000000
11
1386907.9900000000000000
21
4916160.0800000001000000
31
0.0000000000000000
0
LINE
8
DEFAULT
10
1387109.2100000000000000
20
4916524.5999999996000000
30
0.0000000000000000
11
1386874.3899999999000000
21
4916418.7199999997000000
31
0.0000000000000000
0
LINE
8
DEFAULT
10
1386906.9299999999000000
20
4916776.5499999998000000
30
0.0000000000000000
11
1386780.3500000001000000
21
4916535.3200000003000000
31
0.0000000000000000
0
LINE
8
DEFAULT
10
1386842.3100000001000000
20
4916825.6900000004000000
30
0.0000000000000000
11
1386279.4099999999000000
21
4916559.3799999999000000
31
0.0000000000000000
0
LINE
8
DEFAULT
10
1386785.4299999999000000
20
4917123.7800000003000000
30
0.0000000000000000
11
1386283.8799999999000000
21
4916881.0800000001000000
31
0.0000000000000000
0
LINE
8
DEFAULT
10
1386757.8999999999000000
20
4917517.9800000004000000
30
0.0000000000000000
11
1386181.4700000000000000
21
4917023.8799999999000000
31
0.0000000000000000
0
LINE
8
DEFAULT
10
1386360.0800000001000000
20
4917568.6200000001000000
30
0.0000000000000000
11
1385856.6599999999000000
21
4917115.8399999999000000
31
0.0000000000000000
0
LINE
8
DEFAULT
10
1386131.3600000001000000
20
4917924.2999999998000000
30
0.0000000000000000
11
1386023.3200000001000000
21
4917096.1600000001000000
31
0.0000000000000000
0
LINE
8
DEFAULT
10
1385833.0100000000000000
20
4917717.0300000003000000
30
0.0000000000000000
11
1385360.2700000000000000
21
4917439.0999999996000000
31
0.0000000000000000
0
LINE
8
DEFAULT
10
1385643.3700000001000000
20
4917882.0300000003000000
30
0.0000000000000000
11
1385386.6899999999000000
21
4917739.9299999997000000
31
0.0000000000000000
0
LINE
8
DEFAULT
10
1385583.2800000000000000
20
4918181.6799999997000000
30
0.0000000000000000
11
1385292.4500000000000000
21
4918177.5000000000000000
31
0.0000000000000000
0
LINE
8
DEFAULT
10
1385561.0300000000000000
20
4918309.1799999997000000
30
0.0000000000000000
11
1385391.2600000000000000
21
4918437.9500000002000000
31
0.0000000000000000
0
LINE
8
DEFAULT
10
1385669.1200000001000000
20
4918465.4000000004000000
30
0.0000000000000000
11
1385456.5100000000000000
21
4918621.9400000004000000
31
0.0000000000000000
0
LINE
8
DEFAULT
10
1385829.1399999999000000
20
4918589.4699999997000000
30
0.0000000000000000
11
1385603.4399999999000000
21
4918675.1900000004000000
31
0.0000000000000000
0
LINE
8
DEFAULT
10
1385925.4299999999000000
20
4918934.8899999997000000
30
0.0000000000000000
11
1385814.5400000000000000
21
4918978.2999999998000000
31
0.0000000000000000
0
LINE
8
DEFAULT
10
1386074.2600000000000000
20
4919228.6799999997000000
30
0.0000000000000000
11
1385946.7300000000000000
21
4919286.6699999999000000
31
0.0000000000000000
0
LINE
8
DEFAULT
10
1386672.0600000001000000
20
4919435.3899999997000000
30
0.0000000000000000
11
1386664.0400000000000000
21
4919552.2400000002000000
31
0.0000000000000000
0
POINT
8
PNTS
10
1387747.4450000001000000
20
4914711.8569999998000000
30
14.1150000000000000
0
POINT
8
PNTS
10
1387622.9299999999000000
20
4914931.7620000001000000
30
11.0310000000000010
0
POINT
8
PNTS
10
1387533.8589999999000000
20
4915135.9029999999000000
30
14.3740000000000010
0
POINT
8
PNTS
10
1387304.2270000000000000
20
4915368.6880000001000000
30
12.7750000000000000
0
POINT
8
PNTS
10
1387044.8340000000000000
20
4915506.5980000002000000
30
9.5109999999999992
0
POINT
8
PNTS
10
1386891.7080000001000000
20
4915673.9400000004000000
30
13.3859999999999990
0
POINT
8
PNTS
10
1386934.8219999999000000
20
4915908.8080000002000000
30
11.9179999999999990
0
POINT
8
PNTS
10
1387111.5610000000000000
20
4916166.4749999996000000
30
12.2570000000000000
0
POINT
8
PNTS
10
1387104.9950000001000000
20
4916522.7029999997000000
30
12.2980000000000000
0
POINT
8
PNTS
10
1386891.0279999999000000
20
4916746.2970000003000000
30
13.1969999999999990
0
POINT
8
PNTS
10
1386371.3470000001000000
20
4916602.8779999996000000
30
10.9860000000000010
0
POINT
8
PNTS
10
1386765.0360000001000000
20
4917113.8969999999000000
30
13.9819999999999990
0
POINT
8
PNTS
10
1386351.0660000001000000
20
4917169.2520000003000000
30
11.2200000000000010
0
POINT
8
PNTS
10
1386284.8990000000000000
20
4917501.0130000003000000
30
11.2739999999999990
0
POINT
8
PNTS
10
1386118.8899999999000000
20
4917828.8720000004000000
30
14.9610000000000000
0
POINT
8
PNTS
10
1385685.1560000000000000
20
4917630.0990000004000000
30
15.7550000000000010
0
POINT
8
PNTS
10
1385543.7870000000000000
20
4917826.9069999997000000
30
15.3330000000000000
0
POINT
8
PNTS
10
1385435.6080000000000000
20
4918179.5659999996000000
30
15.4900000000000000
0
POINT
8
PNTS
10
1385627.8300000001000000
20
4918495.7949999999000000
30
14.2129999999999990
0
POINT
8
PNTS
10
1385518.7679999999000000
20
4918341.2330000000000000
30
14.1770000000000000
0
POINT
8
PNTS
10
1385709.4150000000000000
20
4918634.9500000002000000
30
15.1190000000000000
0
POINT
8
PNTS
10
1386009.3380000000000000
20
4919258.2010000004000000
30
12.1000000000000000
0
POINT
8
PNTS
10
1386669.9530000000000000
20
4919465.5590000004000000
30
13.3010000000000000
0
POINT
8
PNTS
10
1385817.3060000001000000
20
4918977.2270000000000000
30
17.3270000000000020
0
POINT
8
PNTS
10
1387794.5810000000000000
20
4912984.1590000000000000
30
10.5970000000000000
0
POINT
8
PNTS
10
1388104.5730000001000000
20
4913359.8580000000000000
30
11.1900000000000000
0
POINT
8
PNTS
10
1388281.0619999999000000
20
4913681.6359999999000000
30
11.3520000000000000
0
POINT
8
PNTS
10
1388450.3259999999000000
20
4914019.5789999999000000
30
11.9149999999999990
0
POINT
8
PNTS
10
1388476.1029999999000000
20
4914110.6459999997000000
30
13.7880000000000000
0
POINT
8
PNTS
10
1388361.6540000001000000
20
4914325.3099999996000000
30
11.7270000000000000
0
POINT
8
PNTS
10
1386844.8970000001000000
20
4917043.3930000002000000
30
13.2440000000000000
0
POINT
8
PNTS
10
1386838.3710000000000000
20
4917429.3159999996000000
30
13.7780000000000000
0
POINT
8
PNTS
10
1386844.5049999999000000
20
4917733.9069999997000000
30
14.4350000000000000
0
POINT
8
PNTS
10
1386935.5220000001000000
20
4918063.8190000001000000
30
16.5810000000000000
0
POINT
8
PNTS
10
1396347.4850000001000000
20
4918335.4220000003000000
30
33.3479999999999990
0
POINT
8
PNTS
10
1389978.4820000001000000
20
4915820.5850000000000000
30
11.4290000000000000
0
POINT
8
PNTS
10
1389213.5410000000000000
20
4915551.3559999997000000
30
13.3750000000000000
0
POINT
8
PNTS
10
1388052.8970000001000000
20
4912785.7510000002000000
30
10.8130000000000010
0
POINT
8
PNTS
10
1388038.8829999999000000
20
4913247.7649999997000000
30
11.3829999999999990
0
POINT
8
PNTS
10
1388331.3770000001000000
20
4913723.6820000000000000
30
9.8270000000000000
0
POINT
8
PNTS
10
1387742.1499999999000000
20
4915239.4479999999000000
30
11.4629999999999990
0
POINT
8
PNTS
10
1387570.5730000001000000
20
4915381.4709999999000000
30
11.2959999999999990
0
POINT
8
PNTS
10
1390399.7709999999000000
20
4916034.1449999996000000
30
12.1990000000000000
0
POINT
8
PNTS
10
1391257.4830000000000000
20
4916408.9600000000000000
30
13.7050000000000000
0
POINT
8
PNTS
10
1391835.2570000000000000
20
4916523.8480000002000000
30
15.2989999999999990
0
POINT
8
PNTS
10
1392144.5519999999000000
20
4916593.5109999999000000
30
19.5390000000000010
0
POINT
8
PNTS
10
1387623.3160000001000000
20
4912020.9699999997000000
30
11.1910000000000010
0
POINT
8
PNTS
10
1387996.1939999999000000
20
4912254.0650000004000000
30
11.8010000000000000
0
POINT
8
PNTS
10
1387464.0170000000000000
20
4911846.0570000000000000
30
11.2530000000000000
0
POINT
8
PNTS
10
1378830.1910000001000000
20
4903034.6890000002000000
30
0.0000000000000000
0
POINT
8
PNTS
10
1378923.8000000000000000
20
4903071.4929999998000000
30
0.0000000000000000
0
POINT
8
PNTS
10
1379072.6010000000000000
20
4902818.2570000002000000
30
0.0000000000000000
0
POINT
8
PNTS
10
1379073.2069999999000000
20
4902976.6260000002000000
30
0.0000000000000000
0
POINT
8
PNTS
10
1381221.8759999999000000
20
4900152.9299999997000000
30
0.0000000000000000
0
POINT
8
PNTS
10
1381422.5889999999000000
20
4900326.4919999996000000
30
0.0000000000000000
0
POINT
8
PNTS
10
1382503.7830000001000000
20
4896740.3260000004000000
30
0.0000000000000000
0
POINT
8
PNTS
10
1382699.2100000000000000
20
4896847.3470000001000000
30
0.0000000000000000
0
POINT
8
PNTS
10
1382443.3440000000000000
20
4907093.1229999997000000
30
10.2330000000000010
0
POINT
8
PNTS
10
1379576.9990000001000000
20
4903774.6629999997000000
30
7.3860000000000001
0
POINT
8
PNTS
10
1380356.6780000001000000
20
4904208.7790000001000000
30
7.6699999999999999
0
POINT
8
PNTS
10
1380314.2900000000000000
20
4904268.1100000003000000
30
8.0939999999999994
0
POINT
8
PNTS
10
1381014.2390000001000000
20
4904917.8229999999000000
30
8.2230000000000008
0
POINT
8
PNTS
10
1381092.7390000001000000
20
4904837.8679999998000000
30
6.7670000000000003
0
POINT
8
PNTS
10
1381486.2490000001000000
20
4905248.8710000003000000
30
6.8750000000000000
0
POINT
8
PNTS
10
1381386.0179999999000000
20
4905444.1370000001000000
30
6.7759999999999998
0
POINT
8
PNTS
10
1381522.7860000001000000
20
4905177.6909999996000000
30
7.1310000000000002
0
POINT
8
PNTS
10
1381897.6599999999000000
20
4905482.5740000000000000
30
9.7149999999999999
0
POINT
8
PNTS
10
1381883.9979999999000000
20
4905501.1020000000000000
30
7.2359999999999998
0
POINT
8
PNTS
10
1382446.0430000001000000
20
4905985.8710000003000000
30
7.4349999999999996
0
POINT
8
PNTS
10
1382442.3820000000000000
20
4905988.4579999996000000
30
6.9249999999999998
0
POINT
8
PNTS
10
1382463.9550000001000000
20
4906378.1820000000000000
30
8.1750000000000007
0
POINT
8
PNTS
10
1382433.8799999999000000
20
4906396.1100000003000000
30
6.7469999999999999
0
POINT
8
PNTS
10
1382486.6070000001000000
20
4906826.3380000005000000
30
6.9779999999999998
0
POINT
8
PNTS
10
1382527.4900000000000000
20
4906801.9639999997000000
30
8.8059999999999992
0
POINT
8
PNTS
10
1382474.9590000000000000
20
4906902.5310000004000000
30
8.7620000000000005
0
POINT
8
PNTS
10
1382834.4990000001000000
20
4906921.9299999997000000
30
7.1040000000000001
0
POINT
8
PNTS
10
1382679.1560000000000000
20
4907078.5549999997000000
30
7.2069999999999999
0
POINT
8
PNTS
10
1382442.1140000001000000
20
4907091.9210000001000000
30
10.2630000000000000
0
POINT
8
PNTS
10
1382301.2620000001000000
20
4907213.9529999997000000
30
9.9730000000000008
0
POINT
8
PNTS
10
1382479.4800000000000000
20
4907239.5120000001000000
30
7.5800000000000001
0
POINT
8
PNTS
10
1382483.4380000001000000
20
4907002.1490000002000000
30
8.6170000000000009
0
POINT
8
PNTS
10
1382791.7360000000000000
20
4907460.2460000003000000
30
6.9139999999999997
0
POINT
8
PNTS
10
1382924.1399999999000000
20
4907881.9139999999000000
30
8.7430000000000003
0
POINT
8
PNTS
10
1382910.8580000000000000
20
4908562.6069999998000000
30
9.0389999999999997
0
POINT
8
PNTS
10
1384033.9160000000000000
20
4909046.4210000001000000
30
9.3350000000000009
0
POINT
8
PNTS
10
1383825.2670000000000000
20
4909242.8310000002000000
30
11.2509999999999990
0
POINT
8
PNTS
10
1383989.2890000001000000
20
4909088.4330000002000000
30
8.7180000000000000
0
POINT
8
PNTS
10
1383999.5160000001000000
20
4909349.1849999996000000
30
11.1120000000000000
0
POINT
8
PNTS
10
1384165.4339999999000000
20
4909666.0000000000000000
30
8.7840000000000007
0
POINT
8
PNTS
10
1384088.8060000001000000
20
4909732.8190000001000000
30
11.2490000000000010
0
POINT
8
PNTS
10
1384646.0519999999000000
20
4910136.3119999999000000
30
11.3750000000000000
0
POINT
8
PNTS
10
1385331.5470000000000000
20
4910404.4989999998000000
30
9.0510000000000002
0
POINT
8
PNTS
10
1385478.3510000000000000
20
4910252.8169999998000000
30
9.5399999999999991
0
POINT
8
PNTS
10
1385427.8750000000000000
20
4910908.6629999997000000
30
12.0500000000000010
0
POINT
8
PNTS
10
1385450.6860000000000000
20
4910884.8119999999000000
30
8.0690000000000008
0
POINT
8
PNTS
10
1385671.7540000000000000
20
4911078.4780000001000000
30
12.1110000000000010
0
POINT
8
PNTS
10
1385851.4860000000000000
20
4910912.0159999998000000
30
9.7089999999999996
0
POINT
8
PNTS
10
1385782.5060000001000000
20
4911621.0420000004000000
30
12.9629999999999990
0
POINT
8
PNTS
10
1385797.8720000000000000
20
4911604.7730000000000000
30
8.8719999999999999
0
POINT
8
PNTS
10
1386183.9839999999000000
20
4911679.3909999998000000
30
12.3650000000000000
0
POINT
8
PNTS
10
1386200.4920000001000000
20
4911658.9979999997000000
30
10.7430000000000000
0
POINT
8
PNTS
10
1386707.6200000001000000
20
4911844.0850000000000000
30
12.4880000000000000
0
POINT
8
PNTS
10
1386812.5889999999000000
20
4911532.2330000000000000
30
10.7890000000000000
0
POINT
8
PNTS
10
1387070.0040000000000000
20
4912008.4519999996000000
30
12.5470000000000010
0
POINT
8
PNTS
10
1387256.1410000001000000
20
4911779.1210000003000000
30
8.2100000000000009
0
POINT
8
PNTS
10
1387241.4220000000000000
20
4911797.2529999996000000
30
11.3409999999999990
0
POINT
8
PNTS
10
1382720.5880000000000000
20
4907950.3360000001000000
30
7.7519999999999998
0
POINT
8
PNTS
10
1382700.9680000001000000
20
4907949.2860000003000000
30
8.5519999999999996
0
POINT
8
PNTS
10
1386686.9809999999000000
20
4915632.8849999998000000
30
10.9499999999999990
0
POINT
8
PNTS
10
1387282.5440000000000000
20
4913566.7050000001000000
30
10.7890000000000000
0
POINT
8
PNTS
10
1387646.1820000000000000
20
4913573.3609999996000000
30
12.3170000000000000
0
POINT
8
PNTS
10
1387329.6529999999000000
20
4912145.1059999997000000
30
0.0000000000000000
0
POINT
8
PNTS
10
1387553.6839999999000000
20
4911929.6969999997000000
30
0.0000000000000000
0
POINT
8
PNTS
10
1387590.4490000000000000
20
4912263.9950000001000000
30
0.0000000000000000
0
POINT
8
PNTS
10
1387701.2709999999000000
20
4912062.7589999996000000
30
0.0000000000000000
0
POINT
8
PNTS
10
1387364.7670000000000000
20
4912497.0109999999000000
30
0.0000000000000000
0
POINT
8
PNTS
10
1387924.1050000000000000
20
4912216.9110000003000000
30
0.0000000000000000
0
POINT
8
PNTS
10
1387343.1720000000000000
20
4912584.1220000004000000
30
0.0000000000000000
0
POINT
8
PNTS
10
1387798.4690000000000000
20
4912777.7050000001000000
30
0.0000000000000000
0
POINT
8
PNTS
10
1387228.6210000000000000
20
4912880.6239999998000000
30
0.0000000000000000
0
POINT
8
PNTS
10
1387902.0480000000000000
20
4912955.7999999998000000
30
0.0000000000000000
0
POINT
8
PNTS
10
1387140.3990000000000000
20
4913335.9359999998000000
30
0.0000000000000000
0
POINT
8
PNTS
10
1387921.9230000000000000
20
4913114.2879999997000000
30
0.0000000000000000
0
POINT
8
PNTS
10
1387393.2009999999000000
20
4913099.9800000004000000
30
0.0000000000000000
0
POINT
8
PNTS
10
1387417.4369999999000000
20
4913533.2060000002000000
30
0.0000000000000000
0
POINT
8
PNTS
10
1387694.8310000000000000
20
4913587.9699999997000000
30
0.0000000000000000
0
POINT
8
PNTS
10
1388013.0260000001000000
20
4913289.3559999997000000
30
0.0000000000000000
0
POINT
8
PNTS
10
1387911.1340000001000000
20
4913811.3399999999000000
30
0.0000000000000000
0
POINT
8
PNTS
10
1388278.0589999999000000
20
4913639.3619999997000000
30
0.0000000000000000
0
POINT
8
PNTS
10
1387935.5610000000000000
20
4913987.2160000000000000
30
0.0000000000000000
0
POINT
8
PNTS
10
1388351.9260000000000000
20
4913806.0449999999000000
30
0.0000000000000000
0
POINT
8
PNTS
10
1388064.7109999999000000
20
4914280.6990000000000000
30
0.0000000000000000
0
POINT
8
PNTS
10
1388283.1769999999000000
20
4914416.2549999999000000
30
0.0000000000000000
0
POINT
8
PNTS
10
1387896.2020000000000000
20
4914397.5769999996000000
30
0.0000000000000000
0
POINT
8
PNTS
10
1388224.9160000000000000
20
4914530.3669999996000000
30
0.0000000000000000
0
POINT
8
PNTS
10
1387543.6310000001000000
20
4914651.3580000000000000
30
0.0000000000000000
0
POINT
8
PNTS
10
1387783.0120000001000000
20
4914722.4170000004000000
30
0.0000000000000000
0
POINT
8
PNTS
10
1387514.8899999999000000
20
4914904.9919999996000000
30
0.0000000000000000
0
POINT
8
PNTS
10
1387720.0040000000000000
20
4914955.8279999997000000
30
0.0000000000000000
0
POINT
8
PNTS
10
1387418.6459999999000000
20
4915084.7199999997000000
30
0.0000000000000000
0
POINT
8
PNTS
10
1387552.1270000001000000
20
4915144.0219999999000000
30
0.0000000000000000
0
POINT
8
PNTS
10
1387304.2379999999000000
20
4915368.6689999998000000
30
12.7349999999999990
0
POINT
8
PNTS
10
1387233.5630000001000000
20
4915267.1140000001000000
30
0.0000000000000000
0
POINT
8
PNTS
10
1387309.9920000001000000
20
4915376.9019999998000000
30
0.0000000000000000
0
POINT
8
PNTS
10
1387044.8240000000000000
20
4915506.5769999996000000
30
9.4410000000000007
0
POINT
8
PNTS
10
1387001.1830000000000000
20
4915397.8980000000000000
30
0.0000000000000000
0
POINT
8
PNTS
10
1387052.0100000000000000
20
4915524.4859999996000000
30
0.0000000000000000
0
POINT
8
PNTS
10
1386765.7190000000000000
20
4915618.2460000003000000
30
0.0000000000000000
0
POINT
8
PNTS
10
1386912.5889999999000000
20
4915683.1780000003000000
30
0.0000000000000000
0
POINT
8
PNTS
10
1386934.8110000000000000
20
4915908.8269999996000000
30
11.8780000000000000
0
POINT
8
PNTS
10
1386837.4669999999000000
20
4915960.8020000001000000
30
0.0000000000000000
0
POINT
8
PNTS
10
1386959.1820000000000000
20
4915895.8279999997000000
30
0.0000000000000000
0
POINT
8
PNTS
10
1387111.5710000000000000
20
4916166.4649999999000000
30
12.2270000000000000
0
POINT
8
PNTS
10
1386907.9939999999000000
20
4916160.0769999996000000
30
0.0000000000000000
0
POINT
8
PNTS
10
1387143.9010000001000000
20
4916167.4869999997000000
30
0.0000000000000000
0
POINT
8
PNTS
10
1386874.3910000001000000
20
4916418.7199999997000000
30
0.0000000000000000
0
POINT
8
PNTS
10
1387109.2130000000000000
20
4916524.5990000004000000
30
0.0000000000000000
0
POINT
8
PNTS
10
1386890.9990000001000000
20
4916746.2759999996000000
30
13.2070000000000010
0
POINT
8
PNTS
10
1386780.3489999999000000
20
4916535.3159999996000000
30
0.0000000000000000
0
POINT
8
PNTS
10
1386906.9299999999000000
20
4916776.5520000001000000
30
0.0000000000000000
0
POINT
8
PNTS
10
1386371.3470000001000000
20
4916602.8880000003000000
30
11.0160000000000000
0
POINT
8
PNTS
10
1386279.4080000001000000
20
4916559.3830000004000000
30
0.0000000000000000
0
POINT
8
PNTS
10
1386842.3080000000000000
20
4916825.6880000001000000
30
0.0000000000000000
0
POINT
8
PNTS
10
1386765.0560000001000000
20
4917113.8779999996000000
30
13.9420000000000000
0
POINT
8
PNTS
10
1386283.8770000001000000
20
4916881.0829999996000000
30
0.0000000000000000
0
POINT
8
PNTS
10
1386785.4250000000000000
20
4917123.7790000001000000
30
0.0000000000000000
0
POINT
8
PNTS
10
1386351.0660000001000000
20
4917169.2520000003000000
30
11.2100000000000010
0
POINT
8
PNTS
10
1386181.4669999999000000
20
4917023.8849999998000000
30
0.0000000000000000
0
POINT
8
PNTS
10
1386757.9010000001000000
20
4917517.9840000002000000
30
0.0000000000000000
0
POINT
8
PNTS
10
1385856.6569999999000000
20
4917115.8439999996000000
30
0.0000000000000000
0
POINT
8
PNTS
10
1386360.0750000000000000
20
4917568.6250000000000000
30
0.0000000000000000
0
POINT
8
PNTS
10
1386118.8929999999000000
20
4917828.7719999999000000
30
15.0510000000000000
0
POINT
8
PNTS
10
1386023.3149999999000000
20
4917096.1639999999000000
30
0.0000000000000000
0
POINT
8
PNTS
10
1386131.3610000000000000
20
4917924.2999999998000000
30
0.0000000000000000
0
POINT
8
PNTS
10
1385685.1560000000000000
20
4917630.0990000004000000
30
15.7850000000000000
0
POINT
8
PNTS
10
1385360.2709999999000000
20
4917439.0990000004000000
30
0.0000000000000000
0
POINT
8
PNTS
10
1385833.0100000000000000
20
4917717.0319999997000000
30
0.0000000000000000
0
POINT
8
PNTS
10
1385543.7670000000000000
20
4917826.9069999997000000
30
15.3930000000000010
0
POINT
8
PNTS
10
1385386.6880000001000000
20
4917739.9309999999000000
30
0.0000000000000000
0
POINT
8
PNTS
10
1385643.3670000001000000
20
4917882.0310000004000000
30
0.0000000000000000
0
POINT
8
PNTS
10
1385435.5989999999000000
20
4918179.5559999999000000
30
15.5100000000000000
0
POINT
8
PNTS
10
1385292.4490000000000000
20
4918177.5010000002000000
30
0.0000000000000000
0
POINT
8
PNTS
10
1385583.2790000001000000
20
4918181.6760000000000000
30
0.0000000000000000
0
POINT
8
PNTS
10
1385627.8720000000000000
20
4918495.7160000000000000
30
14.2730000000000000
0
POINT
8
PNTS
10
1385456.5140000000000000
20
4918621.9400000004000000
30
0.0000000000000000
0
POINT
8
PNTS
10
1385669.1159999999000000
20
4918465.3980000000000000
30
0.0000000000000000
0
POINT
8
PNTS
10
1385518.8200000001000000
20
4918341.1840000004000000
30
14.2270000000000000
0
POINT
8
PNTS
10
1385391.2579999999000000
20
4918437.9460000005000000
30
0.0000000000000000
0
POINT
8
PNTS
10
1385561.0319999999000000
20
4918309.1770000001000000
30
0.0000000000000000
0
POINT
8
PNTS
10
1385603.4439999999000000
20
4918675.1940000001000000
30
0.0000000000000000
0
POINT
8
PNTS
10
1385829.1350000000000000
20
4918589.4720000001000000
30
0.0000000000000000
0
POINT
8
PNTS
10
1386009.3380000000000000
20
4919258.2010000004000000
30
12.1000000000000000
0
POINT
8
PNTS
10
1385946.7309999999000000
20
4919286.6720000003000000
30
0.0000000000000000
0
POINT
8
PNTS
10
1386074.2630000000000000
20
4919228.6789999995000000
30
0.0000000000000000
0
POINT
8
PNTS
10
1386664.0379999999000000
20
4919552.2450000001000000
30
0.0000000000000000
0
POINT
8
PNTS
10
1386672.0610000000000000
20
4919435.3880000003000000
30
0.0000000000000000
0
POINT
8
PNTS
10
1385817.4480000001000000
20
4918977.1519999998000000
30
17.3870000000000000
0
POINT
8
PNTS
10
1385814.5370000000000000
20
4918978.3039999995000000
30
0.0000000000000000
0
POINT
8
PNTS
10
1385925.4299999999000000
20
4918934.8859999999000000
30
0.0000000000000000
0
POINT
8
PNTS
10
1379459.9020000000000000
20
4904051.1299999999000000
30
0.0000000000000000
0
POINT
8
PNTS
10
1379618.2120000001000000
20
4903677.3720000004000000
30
0.0000000000000000
0
POINT
8
PNTS
10
1380312.9099999999000000
20
4904265.5400000000000000
30
0.0000000000000000
0
POINT
8
PNTS
10
1379816.4199999999000000
20
4904681.7100000000000000
30
0.0000000000000000
0
POINT
8
PNTS
10
1380314.2900000000000000
20
4904268.1100000003000000
30
0.0000000000000000
0
POINT
8
PNTS
10
1380366.6529999999000000
20
4904194.8080000002000000
30
0.0000000000000000
0
POINT
8
PNTS
10
1380988.3799999999000000
20
4904944.1619999995000000
30
0.0000000000000000
0
POINT
8
PNTS
10
1381158.6420000000000000
20
4904770.7330000000000000
30
0.0000000000000000
0
POINT
8
PNTS
10
1381358.6050000000000000
20
4905497.5449999999000000
30
0.0000000000000000
0
POINT
8
PNTS
10
1381546.9609999999000000
20
4905130.6090000002000000
30
0.0000000000000000
0
POINT
8
PNTS
10
1381835.0009999999000000
20
4905567.5740000000000000
30
0.0000000000000000
0
POINT
8
PNTS
10
1381897.6599999999000000
20
4905482.5740000000000000
30
0.0000000000000000
0
POINT
8
PNTS
10
1382253.5549999999000000
20
4906122.0820000004000000
30
0.0000000000000000
0
POINT
8
PNTS
10
1382452.5750000000000000
20
4905981.2500000000000000
30
0.0000000000000000
0
POINT
8
PNTS
10
1382622.1000000001000000
20
4906283.8899999997000000
30
0.0000000000000000
0
POINT
8
PNTS
10
1382426.3000000000000000
20
4906400.6250000000000000
30
0.0000000000000000
0
POINT
8
PNTS
10
1382486.6070000001000000
20
4906826.3389999997000000
30
0.0000000000000000
0
POINT
8
PNTS
10
1382810.7520000001000000
20
4906633.0829999996000000
30
0.0000000000000000
0
POINT
8
PNTS
10
1382449.1760000000000000
20
4906901.1409999998000000
30
0.0000000000000000
0
POINT
8
PNTS
10
1382935.9520000000000000
20
4906927.4060000004000000
30
0.0000000000000000
0
POINT
8
PNTS
10
1382679.1560000000000000
20
4907078.5559999999000000
30
0.0000000000000000
0
POINT
8
PNTS
10
1382847.6920000000000000
20
4907144.3959999997000000
30
0.0000000000000000
0
POINT
8
PNTS
10
1382442.1140000001000000
20
4907091.9210000001000000
30
0.0000000000000000
0
POINT
8
PNTS
10
1382595.8440000000000000
20
4907241.4830000000000000
30
0.0000000000000000
0
POINT
8
PNTS
10
1382290.1880000001000000
20
4907203.2670000000000000
30
0.0000000000000000
0
POINT
8
PNTS
10
1382614.0600000001000000
20
4907258.8099999996000000
30
0.0000000000000000
0
POINT
8
PNTS
10
1382662.5819999999000000
20
4907584.9600000000000000
30
0.0000000000000000
0
POINT
8
PNTS
10
1382791.7400000000000000
20
4907460.2500000000000000
30
0.0000000000000000
0
POINT
8
PNTS
10
1382662.5819999999000000
20
4907584.9600000000000000
30
0.0000000000000000
0
POINT
8
PNTS
10
1382582.7810000000000000
20
4907942.9709999999000000
30
0.0000000000000000
0
POINT
8
PNTS
10
1383153.0430000001000000
20
4907804.9699999997000000
30
0.0000000000000000
0
POINT
8
PNTS
10
1382832.0270000000000000
20
4908638.8490000004000000
30
0.0000000000000000
0
POINT
8
PNTS
10
1383414.4469999999000000
20
4908075.6179999998000000
30
0.0000000000000000
0
POINT
8
PNTS
10
1383816.9029999999000000
20
4909250.7019999996000000
30
0.0000000000000000
0
POINT
8
PNTS
10
1384247.0619999999000000
20
4908845.7829999998000000
30
0.0000000000000000
0
POINT
8
PNTS
10
1383988.1310000001000000
20
4909352.6100000003000000
30
0.0000000000000000
0
POINT
8
PNTS
10
1384469.9439999999000000
20
4909062.8420000002000000
30
0.0000000000000000
0
POINT
8
PNTS
10
1384088.1150000000000000
20
4909733.4260000000000000
30
0.0000000000000000
0
POINT
8
PNTS
10
1384661.2879999999000000
20
4909248.3010000000000000
30
0.0000000000000000
0
POINT
8
PNTS
10
1384639.6620000000000000
20
4910142.6289999997000000
30
0.0000000000000000
0
POINT
8
PNTS
10
1384805.0810000000000000
20
4909979.1820000000000000
30
0.0000000000000000
0
POINT
8
PNTS
10
1385128.2300000000000000
20
4910614.5609999998000000
30
0.0000000000000000
0
POINT
8
PNTS
10
1385642.2490000001000000
20
4910083.4840000002000000
30
0.0000000000000000
0
POINT
8
PNTS
10
1385422.3850000000000000
20
4910914.4110000003000000
30
0.0000000000000000
0
POINT
8
PNTS
10
1385521.9709999999000000
20
4910810.2750000004000000
30
0.0000000000000000
0
POINT
8
PNTS
10
1385665.0989999999000000
20
4911084.6459999997000000
30
0.0000000000000000
0
POINT
8
PNTS
10
1386096.0230000000000000
20
4910820.4919999996000000
30
0.0000000000000000
0
POINT
8
PNTS
10
1385778.3840000001000000
20
4911625.4150000000000000
30
0.0000000000000000
0
POINT
8
PNTS
10
1385956.3859999999000000
20
4911436.8669999996000000
30
0.0000000000000000
0
POINT
8
PNTS
10
1386180.6830000000000000
20
4911683.4720000001000000
30
0.0000000000000000
0
POINT
8
PNTS
10
1386363.1350000000000000
20
4911458.0570000000000000
30
0.0000000000000000
0
POINT
8
PNTS
10
1386704.1569999999000000
20
4911854.3750000000000000
30
0.0000000000000000
0
POINT
8
PNTS
10
1386853.0009999999000000
20
4911412.1990000000000000
30
0.0000000000000000
0
POINT
8
PNTS
10
1387069.9930000000000000
20
4912008.4720000001000000
30
0.0000000000000000
0
POINT
8
PNTS
10
1387320.4920000001000000
20
4911699.8339999998000000
30
0.0000000000000000
0
ENDSEC
0
EOF
