0
SECTION
2
HEADER
9
$ACADVER
1
AC1009
9
$CLAYER
8
0
0
ENDSEC
0
SECTION
2
TABLES
0
TABLE
2
LTYPE
70
8
0
LTYPE
2
CONTINUOUS
70
0
3
Solid line
72
65
73
0
40
0.0
0
LTYPE
2
DASHED
70
0
3
__ __ __ __ __ __ __ __ __ __ __ __ __ __ __ __
72
65
73
2
40
0.75
49
0.5
49
-0.25
0
LTYPE
2
CENTER2
70
0
3
____ _ ____ _ ____ _ ____ _ ____ _ ____ _ ____ 
72
65
73
4
40
2.0
49
1.25
49
-0.25
49
0.25
49
-0.25
0
ENDTAB
0
TABLE
2
LAYER
70
14
0
LAYER
2
0
70
0
62
7
6
CONTINUOUS
0
LAYER
2
DISTXT
70
0
62
7
6
CONTINUOUS
0
LAYER
2
EXISTING
70
0
62
2
6
DASHED
0
LAYER
2
FINAL
70
0
62
1
6
CONTINUOUS
0
LAYER
2
PNTDESC
70
0
62
3
6
CONTINUOUS
0
LAYER
2
PNTELEV
70
1
62
5
6
CONTINUOUS
0
LAYER
2
PNTMARK
70
0
62
1
6
CONTINUOUS
0
LAYER
2
PNTNO
70
0
62
7
6
CONTINUOUS
0
LAYER
2
PNTS
70
0
62
1
6
CONTINUOUS
0
LAYER
2
DATABASE
70
0
62
7
6
CONTINUOUS
0
LAYER
2
LINEWORK
70
0
62
7
6
CONTINUOUS
0
LAYER
2
DEFAULT
70
0
62
7
6
CONTINUOUS
0
ENDTAB
0
TABLE
2
APPID
70
8
0
APPID
2
CGISCE_GIS_2000
70
0
0
APPID
2
CGISCE_F2F_2000
70
0
0
APPID
2
CGISCE_F2FC_2000
70
0
0
APPID
2
CGISCE_IMG_2000
70
0
0
ENDTAB
0
ENDSEC
0
SECTION
2
ENTITIES
0
LINE
8
DEFAULT
10
1379618.2100000000000000
20
4903677.3700000001000000
30
0.0000000000000000
11
1379459.8999999999000000
21
4904051.1299999999000000
31
0.0000000000000000
0
LINE
8
DEFAULT
10
1382699.2100000000000000
20
4896847.3499999996000000
30
0.0000000000000000
11
1382503.7800000000000000
21
4896740.3300000001000000
31
0.0000000000000000
0
LINE
8
DEFAULT
10
1382699.2100000000000000
20
4896847.3499999996000000
30
0.0000000000000000
11
1382503.7800000000000000
21
4896740.3300000001000000
31
0.0000000000000000
0
LINE
8
DEFAULT
10
1381422.5900000001000000
20
4900326.4900000002000000
30
0.0000000000000000
11
1381221.8799999999000000
21
4900152.9299999997000000
31
0.0000000000000000
0
LINE
8
DEFAULT
10
1379073.2100000000000000
20
4902976.6299999999000000
30
0.0000000000000000
11
1379072.6000000001000000
21
4902818.2599999998000000
31
0.0000000000000000
0
LINE
8
DEFAULT
10
1380314.2900000000000000
20
4904268.1100000003000000
30
0.0000000000000000
11
1379816.4199999999000000
21
4904681.7100000000000000
31
0.0000000000000000
0
LINE
8
DEFAULT
10
1378923.8000000000000000
20
4903071.4900000002000000
30
0.0000000000000000
11
1378830.1899999999000000
21
4903034.6900000004000000
31
0.0000000000000000
0
LINE
8
DEFAULT
10
1381158.6399999999000000
20
4904770.7300000004000000
30
0.0000000000000000
11
1380988.3799999999000000
21
4904944.1600000001000000
31
0.0000000000000000
0
LINE
8
DEFAULT
10
1381546.9600000000000000
20
4905130.6100000003000000
30
0.0000000000000000
11
1381358.6100000001000000
21
4905497.5400000000000000
31
0.0000000000000000
0
LINE
8
DEFAULT
10
1381897.6599999999000000
20
4905482.5700000003000000
30
0.0000000000000000
11
1381835.0000000000000000
21
4905567.5700000003000000
31
0.0000000000000000
0
LINE
8
DEFAULT
10
1382452.5800000001000000
20
4905981.2500000000000000
30
0.0000000000000000
11
1382253.5600000001000000
21
4906122.0800000001000000
31
0.0000000000000000
0
LINE
8
DEFAULT
10
1382622.1000000001000000
20
4906283.8899999997000000
30
0.0000000000000000
11
1382426.3000000000000000
21
4906400.6200000001000000
31
0.0000000000000000
0
LINE
8
DEFAULT
10
1382810.7500000000000000
20
4906633.0800000001000000
30
0.0000000000000000
11
1382486.6100000001000000
21
4906826.3399999999000000
31
0.0000000000000000
0
LINE
8
DEFAULT
10
1382622.1000000001000000
20
4906283.8899999997000000
30
0.0000000000000000
11
1382426.3000000000000000
21
4906400.6200000001000000
31
0.0000000000000000
0
LINE
8
DEFAULT
10
1382935.9500000000000000
20
4906927.4100000001000000
30
0.0000000000000000
11
1382449.1799999999000000
21
4906901.1399999997000000
31
0.0000000000000000
0
LINE
8
DEFAULT
10
1382679.1599999999000000
20
4907078.5599999996000000
30
0.0000000000000000
11
1382847.6899999999000000
21
4907144.4000000004000000
31
0.0000000000000000
0
LINE
8
DEFAULT
10
1382595.8400000001000000
20
4907241.4800000004000000
30
0.0000000000000000
11
1382442.1100000001000000
21
4907091.9199999999000000
31
0.0000000000000000
0
LINE
8
DEFAULT
10
1382614.0600000001000000
20
4907258.8099999996000000
30
0.0000000000000000
11
1382290.1899999999000000
21
4907203.2699999996000000
31
0.0000000000000000
0
LINE
8
DEFAULT
10
1382791.7400000000000000
20
4907460.2500000000000000
30
0.0000000000000000
11
1382662.5800000001000000
21
4907584.9600000000000000
31
0.0000000000000000
0
LINE
8
DEFAULT
10
1383153.0400000000000000
20
4907804.9699999997000000
30
0.0000000000000000
11
1382582.7800000000000000
21
4907942.9699999997000000
31
0.0000000000000000
0
LINE
8
DEFAULT
10
1383414.4500000000000000
20
4908075.6200000001000000
30
0.0000000000000000
11
1382832.0300000000000000
21
4908638.8499999996000000
31
0.0000000000000000
0
LINE
8
DEFAULT
10
1384247.0600000001000000
20
4908845.7800000003000000
30
0.0000000000000000
11
1383816.8999999999000000
21
4909250.7000000002000000
31
0.0000000000000000
0
LINE
8
DEFAULT
10
1384469.9399999999000000
20
4909062.8399999999000000
30
0.0000000000000000
11
1383988.1299999999000000
21
4909352.6100000003000000
31
0.0000000000000000
0
LINE
8
DEFAULT
10
1384661.2900000000000000
20
4909248.2999999998000000
30
0.0000000000000000
11
1384088.1200000001000000
21
4909733.4299999997000000
31
0.0000000000000000
0
LINE
8
DEFAULT
10
1384805.0800000001000000
20
4909979.1799999997000000
30
0.0000000000000000
11
1384639.6599999999000000
21
4910142.6299999999000000
31
0.0000000000000000
0
LINE
8
DEFAULT
10
1385642.2500000000000000
20
4910083.4800000004000000
30
0.0000000000000000
11
1385128.2300000000000000
21
4910614.5599999996000000
31
0.0000000000000000
0
LINE
8
DEFAULT
10
1385521.9700000000000000
20
4910810.2699999996000000
30
0.0000000000000000
11
1385422.3899999999000000
21
4910914.4100000001000000
31
0.0000000000000000
0
LINE
8
DEFAULT
10
1386096.0200000000000000
20
4910820.4900000002000000
30
0.0000000000000000
11
1385665.1000000001000000
21
4911084.6500000004000000
31
0.0000000000000000
0
LINE
8
DEFAULT
10
1385956.3899999999000000
20
4911436.8700000001000000
30
0.0000000000000000
11
1385778.3799999999000000
21
4911625.4100000001000000
31
0.0000000000000000
0
LINE
8
DEFAULT
10
1386363.1399999999000000
20
4911458.0599999996000000
30
0.0000000000000000
11
1386180.6799999999000000
21
4911683.4699999997000000
31
0.0000000000000000
0
LINE
8
DEFAULT
10
1386853.0000000000000000
20
4911412.2000000002000000
30
0.0000000000000000
11
1386704.1599999999000000
21
4911854.3700000001000000
31
0.0000000000000000
0
LINE
8
DEFAULT
10
1387320.4900000000000000
20
4911699.8300000001000000
30
0.0000000000000000
11
1387069.9900000000000000
21
4912008.4699999997000000
31
0.0000000000000000
0
LINE
8
DEFAULT
10
1387553.6799999999000000
20
4911929.7000000002000000
30
0.0000000000000000
11
1387329.6499999999000000
21
4912145.1100000003000000
31
0.0000000000000000
0
LINE
8
DEFAULT
10
1387701.2700000000000000
20
4912062.7599999998000000
30
0.0000000000000000
11
1387590.4500000000000000
21
4912263.9900000002000000
31
0.0000000000000000
0
LINE
8
DEFAULT
10
1387924.1100000001000000
20
4912216.9100000001000000
30
0.0000000000000000
11
1387364.7700000000000000
21
4912497.0099999998000000
31
0.0000000000000000
0
LINE
8
DEFAULT
10
1387798.4700000000000000
20
4912777.7000000002000000
30
0.0000000000000000
11
1387343.1699999999000000
21
4912584.1200000001000000
31
0.0000000000000000
0
LINE
8
DEFAULT
10
1387902.0500000000000000
20
4912955.7999999998000000
30
0.0000000000000000
11
1387228.6200000001000000
21
4912880.6200000001000000
31
0.0000000000000000
0
LINE
8
DEFAULT
10
1388013.0300000000000000
20
4913289.3600000003000000
30
0.0000000000000000
11
1387694.8300000001000000
21
4913587.9699999997000000
31
0.0000000000000000
0
LINE
8
DEFAULT
10
1387393.2000000000000000
20
4913099.9800000004000000
30
0.0000000000000000
11
1387417.4399999999000000
21
4913533.2100000000000000
31
0.0000000000000000
0
LINE
8
DEFAULT
10
1387921.9199999999000000
20
4913114.2900000000000000
30
0.0000000000000000
11
1387140.3999999999000000
21
4913335.9400000004000000
31
0.0000000000000000
0
LINE
8
DEFAULT
10
1388278.0600000001000000
20
4913639.3600000003000000
30
0.0000000000000000
11
1387911.1299999999000000
21
4913811.3399999999000000
31
0.0000000000000000
0
LINE
8
DEFAULT
10
1388351.9299999999000000
20
4913806.0400000000000000
30
0.0000000000000000
11
1387935.5600000001000000
21
4913987.2199999997000000
31
0.0000000000000000
0
LINE
8
DEFAULT
10
1388283.1799999999000000
20
4914416.2500000000000000
30
0.0000000000000000
11
1388064.7100000000000000
21
4914280.7000000002000000
31
0.0000000000000000
0
LINE
8
DEFAULT
10
1388224.9199999999000000
20
4914530.3700000001000000
30
0.0000000000000000
11
1387896.2000000000000000
21
4914397.5800000001000000
31
0.0000000000000000
0
LINE
8
DEFAULT
10
1387783.0100000000000000
20
4914722.4199999999000000
30
0.0000000000000000
11
1387543.6299999999000000
21
4914651.3600000003000000
31
0.0000000000000000
0
LINE
8
DEFAULT
10
1387720.0000000000000000
20
4914955.8300000001000000
30
0.0000000000000000
11
1387514.8899999999000000
21
4914904.9900000002000000
31
0.0000000000000000
0
LINE
8
DEFAULT
10
1387552.1299999999000000
20
4915144.0199999996000000
30
0.0000000000000000
11
1387418.6499999999000000
21
4915084.7199999997000000
31
0.0000000000000000
0
LINE
8
DEFAULT
10
1387309.9900000000000000
20
4915376.9000000004000000
30
0.0000000000000000
11
1387233.5600000001000000
21
4915267.1100000003000000
31
0.0000000000000000
0
LINE
8
DEFAULT
10
1387052.0100000000000000
20
4915524.4900000002000000
30
0.0000000000000000
11
1387001.1799999999000000
21
4915397.9000000004000000
31
0.0000000000000000
0
LINE
8
DEFAULT
10
1386959.1799999999000000
20
4915895.8300000001000000
30
0.0000000000000000
11
1386837.4700000000000000
21
4915960.7999999998000000
31
0.0000000000000000
0
LINE
8
DEFAULT
10
1386912.5900000001000000
20
4915683.1799999997000000
30
0.0000000000000000
11
1386765.7200000000000000
21
4915618.2500000000000000
31
0.0000000000000000
0
LINE
8
DEFAULT
10
1387143.8999999999000000
20
4916167.4900000002000000
30
0.0000000000000000
11
1386907.9900000000000000
21
4916160.0800000001000000
31
0.0000000000000000
0
LINE
8
DEFAULT
10
1387109.2100000000000000
20
4916524.5999999996000000
30
0.0000000000000000
11
1386874.3899999999000000
21
4916418.7199999997000000
31
0.0000000000000000
0
LINE
8
DEFAULT
10
1386906.9299999999000000
20
4916776.5499999998000000
30
0.0000000000000000
11
1386780.3500000001000000
21
4916535.3200000003000000
31
0.0000000000000000
0
LINE
8
DEFAULT
10
1386842.3100000001000000
20
4916825.6900000004000000
30
0.0000000000000000
11
1386279.4099999999000000
21
4916559.3799999999000000
31
0.0000000000000000
0
LINE
8
DEFAULT
10
1386785.4299999999000000
20
4917123.7800000003000000
30
0.0000000000000000
11
1386283.8799999999000000
21
4916881.0800000001000000
31
0.0000000000000000
0
LINE
8
DEFAULT
10
1386757.8999999999000000
20
4917517.9800000004000000
30
0.0000000000000000
11
1386181.4700000000000000
21
4917023.8799999999000000
31
0.0000000000000000
0
LINE
8
DEFAULT
10
1386360.0800000001000000
20
4917568.6200000001000000
30
0.0000000000000000
11
1385856.6599999999000000
21
4917115.8399999999000000
31
0.0000000000000000
0
LINE
8
DEFAULT
10
1386131.3600000001000000
20
4917924.2999999998000000
30
0.0000000000000000
11
1386023.3200000001000000
21
4917096.1600000001000000
31
0.0000000000000000
0
LINE
8
DEFAULT
10
1385833.0100000000000000
20
4917717.0300000003000000
30
0.0000000000000000
11
1385360.2700000000000000
21
4917439.0999999996000000
31
0.0000000000000000
0
LINE
8
DEFAULT
10
1385643.3700000001000000
20
4917882.0300000003000000
30
0.0000000000000000
11
1385386.6899999999000000
21
4917739.9299999997000000
31
0.0000000000000000
0
LINE
8
DEFAULT
10
1385583.2800000000000000
20
4918181.6799999997000000
30
0.0000000000000000
11
1385292.4500000000000000
21
4918177.5000000000000000
31
0.0000000000000000
0
LINE
8
DEFAULT
10
1385561.0300000000000000
20
4918309.1799999997000000
30
0.0000000000000000
11
1385391.2600000000000000
21
4918437.9500000002000000
31
0.0000000000000000
0
LINE
8
DEFAULT
10
1385669.1200000001000000
20
4918465.4000000004000000
30
0.0000000000000000
11
1385456.5100000000000000
21
4918621.9400000004000000
31
0.0000000000000000
0
LINE
8
DEFAULT
10
1385829.1399999999000000
20
4918589.4699999997000000
30
0.0000000000000000
11
1385603.4399999999000000
21
4918675.1900000004000000
31
0.0000000000000000
0
LINE
8
DEFAULT
10
1385925.4299999999000000
20
4918934.8899999997000000
30
0.0000000000000000
11
1385814.5400000000000000
21
4918978.2999999998000000
31
0.0000000000000000
0
LINE
8
DEFAULT
10
1386074.2600000000000000
20
4919228.6799999997000000
30
0.0000000000000000
11
1385946.7300000000000000
21
4919286.6699999999000000
31
0.0000000000000000
0
LINE
8
DEFAULT
10
1386672.0600000001000000
20
4919435.3899999997000000
30
0.0000000000000000
11
1386664.0400000000000000
21
4919552.2400000002000000
31
0.0000000000000000
0
LINE
8
DEFAULT
10
1380366.6499999999000000
20
4904194.8099999996000000
30
0.0000000000000000
11
1380314.2900000000000000
21
4904268.1100000003000000
31
0.0000000000000000
0
POINT
8
PNTS
10
1386579.0000000000000000
20
4919357.0000000000000000
30
0.0000000000000000
0
POINT
8
PNTS
10
1386479.7800000000000000
20
4919530.8300000001000000
30
0.0000000000000000
0
POINT
8
PNTS
10
1378830.1910000001000000
20
4903034.6890000002000000
30
0.0000000000000000
0
POINT
8
PNTS
10
1378923.8000000000000000
20
4903071.4929999998000000
30
0.0000000000000000
0
POINT
8
PNTS
10
1379072.6010000000000000
20
4902818.2570000002000000
30
0.0000000000000000
0
POINT
8
PNTS
10
1379073.2069999999000000
20
4902976.6260000002000000
30
0.0000000000000000
0
POINT
8
PNTS
10
1381221.8759999999000000
20
4900152.9299999997000000
30
0.0000000000000000
0
POINT
8
PNTS
10
1381422.5889999999000000
20
4900326.4919999996000000
30
0.0000000000000000
0
POINT
8
PNTS
10
1382503.7830000001000000
20
4896740.3260000004000000
30
0.0000000000000000
0
POINT
8
PNTS
10
1382699.2100000000000000
20
4896847.3470000001000000
30
0.0000000000000000
0
POINT
8
PNTS
10
1387329.6529999999000000
20
4912145.1059999997000000
30
0.0000000000000000
0
POINT
8
PNTS
10
1387553.6839999999000000
20
4911929.6969999997000000
30
0.0000000000000000
0
POINT
8
PNTS
10
1387590.4490000000000000
20
4912263.9950000001000000
30
0.0000000000000000
0
POINT
8
PNTS
10
1387701.2709999999000000
20
4912062.7589999996000000
30
0.0000000000000000
0
POINT
8
PNTS
10
1387364.7670000000000000
20
4912497.0109999999000000
30
0.0000000000000000
0
POINT
8
PNTS
10
1387924.1050000000000000
20
4912216.9110000003000000
30
0.0000000000000000
0
POINT
8
PNTS
10
1387343.1720000000000000
20
4912584.1220000004000000
30
0.0000000000000000
0
POINT
8
PNTS
10
1387798.4690000000000000
20
4912777.7050000001000000
30
0.0000000000000000
0
POINT
8
PNTS
10
1387228.6210000000000000
20
4912880.6239999998000000
30
0.0000000000000000
0
POINT
8
PNTS
10
1387902.0480000000000000
20
4912955.7999999998000000
30
0.0000000000000000
0
POINT
8
PNTS
10
1387140.3990000000000000
20
4913335.9359999998000000
30
0.0000000000000000
0
POINT
8
PNTS
10
1387921.9230000000000000
20
4913114.2879999997000000
30
0.0000000000000000
0
POINT
8
PNTS
10
1387393.2009999999000000
20
4913099.9800000004000000
30
0.0000000000000000
0
POINT
8
PNTS
10
1387417.4369999999000000
20
4913533.2060000002000000
30
0.0000000000000000
0
POINT
8
PNTS
10
1387694.8310000000000000
20
4913587.9699999997000000
30
0.0000000000000000
0
POINT
8
PNTS
10
1388013.0260000001000000
20
4913289.3559999997000000
30
0.0000000000000000
0
POINT
8
PNTS
10
1387911.1340000001000000
20
4913811.3399999999000000
30
0.0000000000000000
0
POINT
8
PNTS
10
1388278.0589999999000000
20
4913639.3619999997000000
30
0.0000000000000000
0
POINT
8
PNTS
10
1387935.5610000000000000
20
4913987.2160000000000000
30
0.0000000000000000
0
POINT
8
PNTS
10
1388351.9260000000000000
20
4913806.0449999999000000
30
0.0000000000000000
0
POINT
8
PNTS
10
1388064.7109999999000000
20
4914280.6990000000000000
30
0.0000000000000000
0
POINT
8
PNTS
10
1388283.1769999999000000
20
4914416.2549999999000000
30
0.0000000000000000
0
POINT
8
PNTS
10
1387896.2020000000000000
20
4914397.5769999996000000
30
0.0000000000000000
0
POINT
8
PNTS
10
1388224.9160000000000000
20
4914530.3669999996000000
30
0.0000000000000000
0
POINT
8
PNTS
10
1387543.6310000001000000
20
4914651.3580000000000000
30
0.0000000000000000
0
POINT
8
PNTS
10
1387783.0120000001000000
20
4914722.4170000004000000
30
0.0000000000000000
0
POINT
8
PNTS
10
1387514.8899999999000000
20
4914904.9919999996000000
30
0.0000000000000000
0
POINT
8
PNTS
10
1387720.0040000000000000
20
4914955.8279999997000000
30
0.0000000000000000
0
POINT
8
PNTS
10
1387418.6459999999000000
20
4915084.7199999997000000
30
0.0000000000000000
0
POINT
8
PNTS
10
1387552.1270000001000000
20
4915144.0219999999000000
30
0.0000000000000000
0
POINT
8
PNTS
10
1387233.5630000001000000
20
4915267.1140000001000000
30
0.0000000000000000
0
POINT
8
PNTS
10
1387309.9920000001000000
20
4915376.9019999998000000
30
0.0000000000000000
0
POINT
8
PNTS
10
1387001.1830000000000000
20
4915397.8980000000000000
30
0.0000000000000000
0
POINT
8
PNTS
10
1387052.0100000000000000
20
4915524.4859999996000000
30
0.0000000000000000
0
POINT
8
PNTS
10
1386765.7190000000000000
20
4915618.2460000003000000
30
0.0000000000000000
0
POINT
8
PNTS
10
1386912.5889999999000000
20
4915683.1780000003000000
30
0.0000000000000000
0
POINT
8
PNTS
10
1386837.4669999999000000
20
4915960.8020000001000000
30
0.0000000000000000
0
POINT
8
PNTS
10
1386959.1820000000000000
20
4915895.8279999997000000
30
0.0000000000000000
0
POINT
8
PNTS
10
1386907.9939999999000000
20
4916160.0769999996000000
30
0.0000000000000000
0
POINT
8
PNTS
10
1387143.9010000001000000
20
4916167.4869999997000000
30
0.0000000000000000
0
POINT
8
PNTS
10
1386874.3910000001000000
20
4916418.7199999997000000
30
0.0000000000000000
0
POINT
8
PNTS
10
1387109.2130000000000000
20
4916524.5990000004000000
30
0.0000000000000000
0
POINT
8
PNTS
10
1386780.3489999999000000
20
4916535.3159999996000000
30
0.0000000000000000
0
POINT
8
PNTS
10
1386906.9299999999000000
20
4916776.5520000001000000
30
0.0000000000000000
0
POINT
8
PNTS
10
1386279.4080000001000000
20
4916559.3830000004000000
30
0.0000000000000000
0
POINT
8
PNTS
10
1386842.3080000000000000
20
4916825.6880000001000000
30
0.0000000000000000
0
POINT
8
PNTS
10
1386283.8770000001000000
20
4916881.0829999996000000
30
0.0000000000000000
0
POINT
8
PNTS
10
1386785.4250000000000000
20
4917123.7790000001000000
30
0.0000000000000000
0
POINT
8
PNTS
10
1386181.4669999999000000
20
4917023.8849999998000000
30
0.0000000000000000
0
POINT
8
PNTS
10
1386757.9010000001000000
20
4917517.9840000002000000
30
0.0000000000000000
0
POINT
8
PNTS
10
1385856.6569999999000000
20
4917115.8439999996000000
30
0.0000000000000000
0
POINT
8
PNTS
10
1386360.0750000000000000
20
4917568.6250000000000000
30
0.0000000000000000
0
POINT
8
PNTS
10
1386023.3149999999000000
20
4917096.1639999999000000
30
0.0000000000000000
0
POINT
8
PNTS
10
1386131.3610000000000000
20
4917924.2999999998000000
30
0.0000000000000000
0
POINT
8
PNTS
10
1385360.2709999999000000
20
4917439.0990000004000000
30
0.0000000000000000
0
POINT
8
PNTS
10
1385833.0100000000000000
20
4917717.0319999997000000
30
0.0000000000000000
0
POINT
8
PNTS
10
1385386.6880000001000000
20
4917739.9309999999000000
30
0.0000000000000000
0
POINT
8
PNTS
10
1385643.3670000001000000
20
4917882.0310000004000000
30
0.0000000000000000
0
POINT
8
PNTS
10
1385292.4490000000000000
20
4918177.5010000002000000
30
0.0000000000000000
0
POINT
8
PNTS
10
1385583.2790000001000000
20
4918181.6760000000000000
30
0.0000000000000000
0
POINT
8
PNTS
10
1385456.5140000000000000
20
4918621.9400000004000000
30
0.0000000000000000
0
POINT
8
PNTS
10
1385669.1159999999000000
20
4918465.3980000000000000
30
0.0000000000000000
0
POINT
8
PNTS
10
1385391.2579999999000000
20
4918437.9460000005000000
30
0.0000000000000000
0
POINT
8
PNTS
10
1385561.0319999999000000
20
4918309.1770000001000000
30
0.0000000000000000
0
POINT
8
PNTS
10
1385603.4439999999000000
20
4918675.1940000001000000
30
0.0000000000000000
0
POINT
8
PNTS
10
1385829.1350000000000000
20
4918589.4720000001000000
30
0.0000000000000000
0
POINT
8
PNTS
10
1385946.7309999999000000
20
4919286.6720000003000000
30
0.0000000000000000
0
POINT
8
PNTS
10
1386074.2630000000000000
20
4919228.6789999995000000
30
0.0000000000000000
0
POINT
8
PNTS
10
1386664.0379999999000000
20
4919552.2450000001000000
30
0.0000000000000000
0
POINT
8
PNTS
10
1386672.0610000000000000
20
4919435.3880000003000000
30
0.0000000000000000
0
POINT
8
PNTS
10
1385814.5370000000000000
20
4918978.3039999995000000
30
0.0000000000000000
0
POINT
8
PNTS
10
1385925.4299999999000000
20
4918934.8859999999000000
30
0.0000000000000000
0
POINT
8
PNTS
10
1379459.9020000000000000
20
4904051.1299999999000000
30
0.0000000000000000
0
POINT
8
PNTS
10
1379618.2120000001000000
20
4903677.3720000004000000
30
0.0000000000000000
0
POINT
8
PNTS
10
1380314.2900000000000000
20
4904268.1100000003000000
30
0.0000000000000000
0
POINT
8
PNTS
10
1380366.6529999999000000
20
4904194.8080000002000000
30
0.0000000000000000
0
POINT
8
PNTS
10
1380988.3799999999000000
20
4904944.1619999995000000
30
0.0000000000000000
0
POINT
8
PNTS
10
1381158.6420000000000000
20
4904770.7330000000000000
30
0.0000000000000000
0
POINT
8
PNTS
10
1381358.6050000000000000
20
4905497.5449999999000000
30
0.0000000000000000
0
POINT
8
PNTS
10
1381546.9609999999000000
20
4905130.6090000002000000
30
0.0000000000000000
0
POINT
8
PNTS
10
1381835.0009999999000000
20
4905567.5740000000000000
30
0.0000000000000000
0
POINT
8
PNTS
10
1381897.6599999999000000
20
4905482.5740000000000000
30
0.0000000000000000
0
POINT
8
PNTS
10
1382253.5549999999000000
20
4906122.0820000004000000
30
0.0000000000000000
0
POINT
8
PNTS
10
1382452.5750000000000000
20
4905981.2500000000000000
30
0.0000000000000000
0
POINT
8
PNTS
10
1382426.3000000000000000
20
4906400.6250000000000000
30
0.0000000000000000
0
POINT
8
PNTS
10
1382486.6070000001000000
20
4906826.3389999997000000
30
0.0000000000000000
0
POINT
8
PNTS
10
1382810.7520000001000000
20
4906633.0829999996000000
30
0.0000000000000000
0
POINT
8
PNTS
10
1382449.1760000000000000
20
4906901.1409999998000000
30
0.0000000000000000
0
POINT
8
PNTS
10
1382935.9520000000000000
20
4906927.4060000004000000
30
0.0000000000000000
0
POINT
8
PNTS
10
1382679.1560000000000000
20
4907078.5559999999000000
30
0.0000000000000000
0
POINT
8
PNTS
10
1382847.6920000000000000
20
4907144.3959999997000000
30
0.0000000000000000
0
POINT
8
PNTS
10
1382442.1140000001000000
20
4907091.9210000001000000
30
0.0000000000000000
0
POINT
8
PNTS
10
1382595.8440000000000000
20
4907241.4830000000000000
30
0.0000000000000000
0
POINT
8
PNTS
10
1382290.1880000001000000
20
4907203.2670000000000000
30
0.0000000000000000
0
POINT
8
PNTS
10
1382662.5819999999000000
20
4907584.9600000000000000
30
0.0000000000000000
0
POINT
8
PNTS
10
1382582.7810000000000000
20
4907942.9709999999000000
30
0.0000000000000000
0
POINT
8
PNTS
10
1383153.0430000001000000
20
4907804.9699999997000000
30
0.0000000000000000
0
POINT
8
PNTS
10
1382832.0270000000000000
20
4908638.8490000004000000
30
0.0000000000000000
0
POINT
8
PNTS
10
1383414.4469999999000000
20
4908075.6179999998000000
30
0.0000000000000000
0
POINT
8
PNTS
10
1383816.9029999999000000
20
4909250.7019999996000000
30
0.0000000000000000
0
POINT
8
PNTS
10
1384247.0619999999000000
20
4908845.7829999998000000
30
0.0000000000000000
0
POINT
8
PNTS
10
1383988.1310000001000000
20
4909352.6100000003000000
30
0.0000000000000000
0
POINT
8
PNTS
10
1384469.9439999999000000
20
4909062.8420000002000000
30
0.0000000000000000
0
POINT
8
PNTS
10
1384088.1150000000000000
20
4909733.4260000000000000
30
0.0000000000000000
0
POINT
8
PNTS
10
1384661.2879999999000000
20
4909248.3010000000000000
30
0.0000000000000000
0
POINT
8
PNTS
10
1384639.6620000000000000
20
4910142.6289999997000000
30
0.0000000000000000
0
POINT
8
PNTS
10
1384805.0810000000000000
20
4909979.1820000000000000
30
0.0000000000000000
0
POINT
8
PNTS
10
1385128.2300000000000000
20
4910614.5609999998000000
30
0.0000000000000000
0
POINT
8
PNTS
10
1385642.2490000001000000
20
4910083.4840000002000000
30
0.0000000000000000
0
POINT
8
PNTS
10
1385422.3850000000000000
20
4910914.4110000003000000
30
0.0000000000000000
0
POINT
8
PNTS
10
1385521.9709999999000000
20
4910810.2750000004000000
30
0.0000000000000000
0
POINT
8
PNTS
10
1385665.0989999999000000
20
4911084.6459999997000000
30
0.0000000000000000
0
POINT
8
PNTS
10
1386096.0230000000000000
20
4910820.4919999996000000
30
0.0000000000000000
0
POINT
8
PNTS
10
1385778.3840000001000000
20
4911625.4150000000000000
30
0.0000000000000000
0
POINT
8
PNTS
10
1385956.3859999999000000
20
4911436.8669999996000000
30
0.0000000000000000
0
POINT
8
PNTS
10
1386180.6830000000000000
20
4911683.4720000001000000
30
0.0000000000000000
0
POINT
8
PNTS
10
1386363.1350000000000000
20
4911458.0570000000000000
30
0.0000000000000000
0
POINT
8
PNTS
10
1386704.1569999999000000
20
4911854.3750000000000000
30
0.0000000000000000
0
POINT
8
PNTS
10
1386853.0009999999000000
20
4911412.1990000000000000
30
0.0000000000000000
0
POINT
8
PNTS
10
1387069.9930000000000000
20
4912008.4720000001000000
30
0.0000000000000000
0
POINT
8
PNTS
10
1387320.4920000001000000
20
4911699.8339999998000000
30
0.0000000000000000
0
ENDSEC
0
EOF
