0
SECTION
2
HEADER
9
$ACADVER
1
AC1009
9
$CLAYER
8
0
0
ENDSEC
0
SECTION
2
TABLES
0
TABLE
2
LTYPE
70
8
0
LTYPE
2
CONTINUOUS
70
0
3
Solid line
72
65
73
0
40
0.0
0
LTYPE
2
DASHED
70
0
3
__ __ __ __ __ __ __ __ __ __ __ __ __ __ __ __
72
65
73
2
40
0.75
49
0.5
49
-0.25
0
LTYPE
2
CENTER2
70
0
3
____ _ ____ _ ____ _ ____ _ ____ _ ____ _ ____ 
72
65
73
4
40
2.0
49
1.25
49
-0.25
49
0.25
49
-0.25
0
ENDTAB
0
TABLE
2
LAYER
70
14
0
LAYER
2
0
70
0
62
7
6
CONTINUOUS
0
LAYER
2
DISTXT
70
0
62
7
6
CONTINUOUS
0
LAYER
2
EXISTING
70
0
62
2
6
CONTINUOUS
0
LAYER
2
FINAL
70
0
62
1
6
CONTINUOUS
0
LAYER
2
PNTDESC
70
0
62
3
6
CONTINUOUS
0
LAYER
2
PNTELEV
70
1
62
5
6
CONTINUOUS
0
LAYER
2
PNTMARK
70
0
62
1
6
CONTINUOUS
0
LAYER
2
PNTNO
70
0
62
7
6
CONTINUOUS
0
LAYER
2
PNTS
70
0
62
1
6
CONTINUOUS
0
LAYER
2
DATABASE
70
0
62
7
6
CONTINUOUS
0
LAYER
2
LINEWORK
70
0
62
7
6
CONTINUOUS
0
LAYER
2
DEFAULT
70
0
62
7
6
CONTINUOUS
0
ENDTAB
0
TABLE
2
APPID
70
8
0
APPID
2
CGISCE_GIS_2000
70
0
0
APPID
2
CGISCE_F2F_2000
70
0
0
APPID
2
CGISCE_F2FC_2000
70
0
0
APPID
2
CGISCE_IMG_2000
70
0
0
ENDTAB
0
ENDSEC
0
SECTION
2
ENTITIES
0
LINE
8
DEFAULT
10
1379618.2100000000000000
20
4903677.3700000001000000
30
0.0000000000000000
11
1379459.8999999999000000
21
4904051.1299999999000000
31
0.0000000000000000
0
LINE
8
DEFAULT
10
1382699.2100000000000000
20
4896847.3499999996000000
30
0.0000000000000000
11
1382503.7800000000000000
21
4896740.3300000001000000
31
0.0000000000000000
0
LINE
8
DEFAULT
10
1382699.2100000000000000
20
4896847.3499999996000000
30
0.0000000000000000
11
1382503.7800000000000000
21
4896740.3300000001000000
31
0.0000000000000000
0
LINE
8
DEFAULT
10
1381422.5900000001000000
20
4900326.4900000002000000
30
0.0000000000000000
11
1381221.8799999999000000
21
4900152.9299999997000000
31
0.0000000000000000
0
LINE
8
DEFAULT
10
1379073.2100000000000000
20
4902976.6299999999000000
30
0.0000000000000000
11
1379072.6000000001000000
21
4902818.2599999998000000
31
0.0000000000000000
0
LINE
8
DEFAULT
10
1380314.2900000000000000
20
4904268.1100000003000000
30
0.0000000000000000
11
1379816.4199999999000000
21
4904681.7100000000000000
31
0.0000000000000000
0
LINE
8
DEFAULT
10
1378923.8000000000000000
20
4903071.4900000002000000
30
0.0000000000000000
11
1378830.1899999999000000
21
4903034.6900000004000000
31
0.0000000000000000
0
LINE
8
DEFAULT
10
1381158.6399999999000000
20
4904770.7300000004000000
30
0.0000000000000000
11
1380988.3799999999000000
21
4904944.1600000001000000
31
0.0000000000000000
0
LINE
8
DEFAULT
10
1381546.9600000000000000
20
4905130.6100000003000000
30
0.0000000000000000
11
1381358.6100000001000000
21
4905497.5400000000000000
31
0.0000000000000000
0
LINE
8
DEFAULT
10
1381897.6599999999000000
20
4905482.5700000003000000
30
0.0000000000000000
11
1381835.0000000000000000
21
4905567.5700000003000000
31
0.0000000000000000
0
LINE
8
DEFAULT
10
1382452.5800000001000000
20
4905981.2500000000000000
30
0.0000000000000000
11
1382253.5600000001000000
21
4906122.0800000001000000
31
0.0000000000000000
0
LINE
8
DEFAULT
10
1382622.1000000001000000
20
4906283.8899999997000000
30
0.0000000000000000
11
1382426.3000000000000000
21
4906400.6200000001000000
31
0.0000000000000000
0
LINE
8
DEFAULT
10
1382810.7500000000000000
20
4906633.0800000001000000
30
0.0000000000000000
11
1382486.6100000001000000
21
4906826.3399999999000000
31
0.0000000000000000
0
LINE
8
DEFAULT
10
1382622.1000000001000000
20
4906283.8899999997000000
30
0.0000000000000000
11
1382426.3000000000000000
21
4906400.6200000001000000
31
0.0000000000000000
0
LINE
8
DEFAULT
10
1382935.9500000000000000
20
4906927.4100000001000000
30
0.0000000000000000
11
1382449.1799999999000000
21
4906901.1399999997000000
31
0.0000000000000000
0
LINE
8
DEFAULT
10
1382679.1599999999000000
20
4907078.5599999996000000
30
0.0000000000000000
11
1382847.6899999999000000
21
4907144.4000000004000000
31
0.0000000000000000
0
LINE
8
DEFAULT
10
1382595.8400000001000000
20
4907241.4800000004000000
30
0.0000000000000000
11
1382442.1100000001000000
21
4907091.9199999999000000
31
0.0000000000000000
0
LINE
8
DEFAULT
10
1382614.0600000001000000
20
4907258.8099999996000000
30
0.0000000000000000
11
1382290.1899999999000000
21
4907203.2699999996000000
31
0.0000000000000000
0
LINE
8
DEFAULT
10
1382791.7400000000000000
20
4907460.2500000000000000
30
0.0000000000000000
11
1382662.5800000001000000
21
4907584.9600000000000000
31
0.0000000000000000
0
LINE
8
DEFAULT
10
1383153.0400000000000000
20
4907804.9699999997000000
30
0.0000000000000000
11
1382582.7800000000000000
21
4907942.9699999997000000
31
0.0000000000000000
0
LINE
8
DEFAULT
10
1383414.4500000000000000
20
4908075.6200000001000000
30
0.0000000000000000
11
1382832.0300000000000000
21
4908638.8499999996000000
31
0.0000000000000000
0
LINE
8
DEFAULT
10
1384247.0600000001000000
20
4908845.7800000003000000
30
0.0000000000000000
11
1383816.8999999999000000
21
4909250.7000000002000000
31
0.0000000000000000
0
LINE
8
DEFAULT
10
1384469.9399999999000000
20
4909062.8399999999000000
30
0.0000000000000000
11
1383988.1299999999000000
21
4909352.6100000003000000
31
0.0000000000000000
0
LINE
8
DEFAULT
10
1384661.2900000000000000
20
4909248.2999999998000000
30
0.0000000000000000
11
1384088.1200000001000000
21
4909733.4299999997000000
31
0.0000000000000000
0
LINE
8
DEFAULT
10
1384805.0800000001000000
20
4909979.1799999997000000
30
0.0000000000000000
11
1384639.6599999999000000
21
4910142.6299999999000000
31
0.0000000000000000
0
LINE
8
DEFAULT
10
1385642.2500000000000000
20
4910083.4800000004000000
30
0.0000000000000000
11
1385128.2300000000000000
21
4910614.5599999996000000
31
0.0000000000000000
0
LINE
8
DEFAULT
10
1385521.9700000000000000
20
4910810.2699999996000000
30
0.0000000000000000
11
1385422.3899999999000000
21
4910914.4100000001000000
31
0.0000000000000000
0
LINE
8
DEFAULT
10
1386096.0200000000000000
20
4910820.4900000002000000
30
0.0000000000000000
11
1385665.1000000001000000
21
4911084.6500000004000000
31
0.0000000000000000
0
LINE
8
DEFAULT
10
1385956.3899999999000000
20
4911436.8700000001000000
30
0.0000000000000000
11
1385778.3799999999000000
21
4911625.4100000001000000
31
0.0000000000000000
0
LINE
8
DEFAULT
10
1386363.1399999999000000
20
4911458.0599999996000000
30
0.0000000000000000
11
1386180.6799999999000000
21
4911683.4699999997000000
31
0.0000000000000000
0
LINE
8
DEFAULT
10
1386853.0000000000000000
20
4911412.2000000002000000
30
0.0000000000000000
11
1386704.1599999999000000
21
4911854.3700000001000000
31
0.0000000000000000
0
LINE
8
DEFAULT
10
1387320.4900000000000000
20
4911699.8300000001000000
30
0.0000000000000000
11
1387069.9900000000000000
21
4912008.4699999997000000
31
0.0000000000000000
0
LINE
8
DEFAULT
10
1387553.6799999999000000
20
4911929.7000000002000000
30
0.0000000000000000
11
1387329.6499999999000000
21
4912145.1100000003000000
31
0.0000000000000000
0
LINE
8
DEFAULT
10
1387701.2700000000000000
20
4912062.7599999998000000
30
0.0000000000000000
11
1387590.4500000000000000
21
4912263.9900000002000000
31
0.0000000000000000
0
LINE
8
DEFAULT
10
1387924.1100000001000000
20
4912216.9100000001000000
30
0.0000000000000000
11
1387364.7700000000000000
21
4912497.0099999998000000
31
0.0000000000000000
0
LINE
8
DEFAULT
10
1387798.4700000000000000
20
4912777.7000000002000000
30
0.0000000000000000
11
1387343.1699999999000000
21
4912584.1200000001000000
31
0.0000000000000000
0
LINE
8
DEFAULT
10
1387902.0500000000000000
20
4912955.7999999998000000
30
0.0000000000000000
11
1387228.6200000001000000
21
4912880.6200000001000000
31
0.0000000000000000
0
LINE
8
DEFAULT
10
1388013.0300000000000000
20
4913289.3600000003000000
30
0.0000000000000000
11
1387694.8300000001000000
21
4913587.9699999997000000
31
0.0000000000000000
0
LINE
8
DEFAULT
10
1387393.2000000000000000
20
4913099.9800000004000000
30
0.0000000000000000
11
1387417.4399999999000000
21
4913533.2100000000000000
31
0.0000000000000000
0
LINE
8
DEFAULT
10
1387921.9199999999000000
20
4913114.2900000000000000
30
0.0000000000000000
11
1387140.3999999999000000
21
4913335.9400000004000000
31
0.0000000000000000
0
LINE
8
DEFAULT
10
1388278.0600000001000000
20
4913639.3600000003000000
30
0.0000000000000000
11
1387911.1299999999000000
21
4913811.3399999999000000
31
0.0000000000000000
0
LINE
8
DEFAULT
10
1388351.9299999999000000
20
4913806.0400000000000000
30
0.0000000000000000
11
1387935.5600000001000000
21
4913987.2199999997000000
31
0.0000000000000000
0
LINE
8
DEFAULT
10
1388283.1799999999000000
20
4914416.2500000000000000
30
0.0000000000000000
11
1388064.7100000000000000
21
4914280.7000000002000000
31
0.0000000000000000
0
LINE
8
DEFAULT
10
1388224.9199999999000000
20
4914530.3700000001000000
30
0.0000000000000000
11
1387896.2000000000000000
21
4914397.5800000001000000
31
0.0000000000000000
0
LINE
8
DEFAULT
10
1387783.0100000000000000
20
4914722.4199999999000000
30
0.0000000000000000
11
1387543.6299999999000000
21
4914651.3600000003000000
31
0.0000000000000000
0
LINE
8
DEFAULT
10
1387720.0000000000000000
20
4914955.8300000001000000
30
0.0000000000000000
11
1387514.8899999999000000
21
4914904.9900000002000000
31
0.0000000000000000
0
LINE
8
DEFAULT
10
1387552.1299999999000000
20
4915144.0199999996000000
30
0.0000000000000000
11
1387418.6499999999000000
21
4915084.7199999997000000
31
0.0000000000000000
0
LINE
8
DEFAULT
10
1387309.9900000000000000
20
4915376.9000000004000000
30
0.0000000000000000
11
1387233.5600000001000000
21
4915267.1100000003000000
31
0.0000000000000000
0
LINE
8
DEFAULT
10
1387052.0100000000000000
20
4915524.4900000002000000
30
0.0000000000000000
11
1387001.1799999999000000
21
4915397.9000000004000000
31
0.0000000000000000
0
LINE
8
DEFAULT
10
1386959.1799999999000000
20
4915895.8300000001000000
30
0.0000000000000000
11
1386837.4700000000000000
21
4915960.7999999998000000
31
0.0000000000000000
0
LINE
8
DEFAULT
10
1386912.5900000001000000
20
4915683.1799999997000000
30
0.0000000000000000
11
1386765.7200000000000000
21
4915618.2500000000000000
31
0.0000000000000000
0
LINE
8
DEFAULT
10
1387143.8999999999000000
20
4916167.4900000002000000
30
0.0000000000000000
11
1386907.9900000000000000
21
4916160.0800000001000000
31
0.0000000000000000
0
LINE
8
DEFAULT
10
1387109.2100000000000000
20
4916524.5999999996000000
30
0.0000000000000000
11
1386874.3899999999000000
21
4916418.7199999997000000
31
0.0000000000000000
0
LINE
8
DEFAULT
10
1386906.9299999999000000
20
4916776.5499999998000000
30
0.0000000000000000
11
1386780.3500000001000000
21
4916535.3200000003000000
31
0.0000000000000000
0
LINE
8
DEFAULT
10
1386842.3100000001000000
20
4916825.6900000004000000
30
0.0000000000000000
11
1386279.4099999999000000
21
4916559.3799999999000000
31
0.0000000000000000
0
LINE
8
DEFAULT
10
1386785.4299999999000000
20
4917123.7800000003000000
30
0.0000000000000000
11
1386283.8799999999000000
21
4916881.0800000001000000
31
0.0000000000000000
0
LINE
8
DEFAULT
10
1386757.8999999999000000
20
4917517.9800000004000000
30
0.0000000000000000
11
1386181.4700000000000000
21
4917023.8799999999000000
31
0.0000000000000000
0
LINE
8
DEFAULT
10
1386360.0800000001000000
20
4917568.6200000001000000
30
0.0000000000000000
11
1385856.6599999999000000
21
4917115.8399999999000000
31
0.0000000000000000
0
LINE
8
DEFAULT
10
1386131.3600000001000000
20
4917924.2999999998000000
30
0.0000000000000000
11
1386023.3200000001000000
21
4917096.1600000001000000
31
0.0000000000000000
0
LINE
8
DEFAULT
10
1385833.0100000000000000
20
4917717.0300000003000000
30
0.0000000000000000
11
1385360.2700000000000000
21
4917439.0999999996000000
31
0.0000000000000000
0
LINE
8
DEFAULT
10
1385643.3700000001000000
20
4917882.0300000003000000
30
0.0000000000000000
11
1385386.6899999999000000
21
4917739.9299999997000000
31
0.0000000000000000
0
LINE
8
DEFAULT
10
1385583.2800000000000000
20
4918181.6799999997000000
30
0.0000000000000000
11
1385292.4500000000000000
21
4918177.5000000000000000
31
0.0000000000000000
0
LINE
8
DEFAULT
10
1385561.0300000000000000
20
4918309.1799999997000000
30
0.0000000000000000
11
1385391.2600000000000000
21
4918437.9500000002000000
31
0.0000000000000000
0
LINE
8
DEFAULT
10
1385669.1200000001000000
20
4918465.4000000004000000
30
0.0000000000000000
11
1385456.5100000000000000
21
4918621.9400000004000000
31
0.0000000000000000
0
LINE
8
DEFAULT
10
1385829.1399999999000000
20
4918589.4699999997000000
30
0.0000000000000000
11
1385603.4399999999000000
21
4918675.1900000004000000
31
0.0000000000000000
0
LINE
8
DEFAULT
10
1385925.4299999999000000
20
4918934.8899999997000000
30
0.0000000000000000
11
1385814.5400000000000000
21
4918978.2999999998000000
31
0.0000000000000000
0
LINE
8
DEFAULT
10
1386074.2600000000000000
20
4919228.6799999997000000
30
0.0000000000000000
11
1385946.7300000000000000
21
4919286.6699999999000000
31
0.0000000000000000
0
LINE
8
DEFAULT
10
1386672.0600000001000000
20
4919435.3899999997000000
30
0.0000000000000000
11
1386664.0400000000000000
21
4919552.2400000002000000
31
0.0000000000000000
0
POINT
8
PNTS
10
1383691.4299999999000000
20
4908329.2300000004000000
30
7.0759999999999996
0
POINT
8
PNTS
10
1383691.4299999999000000
20
4908329.2300000060000000
30
7.0759999999999996
0
POINT
8
PNTS
10
1383414.0000000000000000
20
4908075.0000000000000000
30
0.0000000000000000
0
POINT
8
PNTS
10
1382832.0000000000000000
20
4908638.0000000000000000
30
0.0000000000000000
0
POINT
8
PNTS
10
1383153.0000000000000000
20
4907804.0000000000000000
30
0.0000000000000000
0
POINT
8
PNTS
10
1382582.0000000000000000
20
4907942.0000000000000000
30
0.0000000000000000
0
POINT
8
PNTS
10
1384247.0000000000000000
20
4908845.0000000000000000
30
0.0000000000000000
0
POINT
8
PNTS
10
1383816.0000000000000000
20
4909250.0000000000000000
30
0.0000000000000000
0
POINT
8
PNTS
10
1384469.0000000000000000
20
4909062.0000000000000000
30
0.0000000000000000
0
POINT
8
PNTS
10
1383988.0000000000000000
20
4909352.0000000000000000
30
0.0000000000000000
0
POINT
8
PNTS
10
1384661.0000000000000000
20
4909248.0000000000000000
30
0.0000000000000000
0
POINT
8
PNTS
10
1384088.0000000000000000
20
4909733.0000000000000000
30
0.0000000000000000
0
POINT
8
PNTS
10
1384805.0000000000000000
20
4909979.0000000000000000
30
0.0000000000000000
0
POINT
8
PNTS
10
1378830.1910000001000000
20
4903034.6890000002000000
30
0.0000000000000000
0
POINT
8
PNTS
10
1378923.8000000000000000
20
4903071.4929999998000000
30
0.0000000000000000
0
POINT
8
PNTS
10
1379072.6010000000000000
20
4902818.2570000002000000
30
0.0000000000000000
0
POINT
8
PNTS
10
1379073.2069999999000000
20
4902976.6260000002000000
30
0.0000000000000000
0
POINT
8
PNTS
10
1381221.8759999999000000
20
4900152.9299999997000000
30
0.0000000000000000
0
POINT
8
PNTS
10
1381422.5889999999000000
20
4900326.4919999996000000
30
0.0000000000000000
0
POINT
8
PNTS
10
1382503.7830000001000000
20
4896740.3260000004000000
30
0.0000000000000000
0
POINT
8
PNTS
10
1382699.2100000000000000
20
4896847.3470000001000000
30
0.0000000000000000
0
POINT
8
PNTS
10
1387329.6529999999000000
20
4912145.1059999997000000
30
0.0000000000000000
0
POINT
8
PNTS
10
1387553.6839999999000000
20
4911929.6969999997000000
30
0.0000000000000000
0
POINT
8
PNTS
10
1387590.4490000000000000
20
4912263.9950000001000000
30
0.0000000000000000
0
POINT
8
PNTS
10
1387701.2709999999000000
20
4912062.7589999996000000
30
0.0000000000000000
0
POINT
8
PNTS
10
1387364.7670000000000000
20
4912497.0109999999000000
30
0.0000000000000000
0
POINT
8
PNTS
10
1387924.1050000000000000
20
4912216.9110000003000000
30
0.0000000000000000
0
POINT
8
PNTS
10
1387343.1720000000000000
20
4912584.1220000004000000
30
0.0000000000000000
0
POINT
8
PNTS
10
1387798.4690000000000000
20
4912777.7050000001000000
30
0.0000000000000000
0
POINT
8
PNTS
10
1387228.6210000000000000
20
4912880.6239999998000000
30
0.0000000000000000
0
POINT
8
PNTS
10
1387902.0480000000000000
20
4912955.7999999998000000
30
0.0000000000000000
0
POINT
8
PNTS
10
1387140.3990000000000000
20
4913335.9359999998000000
30
0.0000000000000000
0
POINT
8
PNTS
10
1387921.9230000000000000
20
4913114.2879999997000000
30
0.0000000000000000
0
POINT
8
PNTS
10
1387393.2009999999000000
20
4913099.9800000004000000
30
0.0000000000000000
0
POINT
8
PNTS
10
1387417.4369999999000000
20
4913533.2060000002000000
30
0.0000000000000000
0
POINT
8
PNTS
10
1387694.8310000000000000
20
4913587.9699999997000000
30
0.0000000000000000
0
POINT
8
PNTS
10
1388013.0260000001000000
20
4913289.3559999997000000
30
0.0000000000000000
0
POINT
8
PNTS
10
1387911.1340000001000000
20
4913811.3399999999000000
30
0.0000000000000000
0
POINT
8
PNTS
10
1388278.0589999999000000
20
4913639.3619999997000000
30
0.0000000000000000
0
POINT
8
PNTS
10
1387935.5610000000000000
20
4913987.2160000000000000
30
0.0000000000000000
0
POINT
8
PNTS
10
1388351.9260000000000000
20
4913806.0449999999000000
30
0.0000000000000000
0
POINT
8
PNTS
10
1388064.7109999999000000
20
4914280.6990000000000000
30
0.0000000000000000
0
POINT
8
PNTS
10
1388283.1769999999000000
20
4914416.2549999999000000
30
0.0000000000000000
0
POINT
8
PNTS
10
1387896.2020000000000000
20
4914397.5769999996000000
30
0.0000000000000000
0
POINT
8
PNTS
10
1388224.9160000000000000
20
4914530.3669999996000000
30
0.0000000000000000
0
POINT
8
PNTS
10
1387543.6310000001000000
20
4914651.3580000000000000
30
0.0000000000000000
0
POINT
8
PNTS
10
1387783.0120000001000000
20
4914722.4170000004000000
30
0.0000000000000000
0
POINT
8
PNTS
10
1387514.8899999999000000
20
4914904.9919999996000000
30
0.0000000000000000
0
POINT
8
PNTS
10
1387720.0040000000000000
20
4914955.8279999997000000
30
0.0000000000000000
0
POINT
8
PNTS
10
1387418.6459999999000000
20
4915084.7199999997000000
30
0.0000000000000000
0
POINT
8
PNTS
10
1387552.1270000001000000
20
4915144.0219999999000000
30
0.0000000000000000
0
POINT
8
PNTS
10
1387233.5630000001000000
20
4915267.1140000001000000
30
0.0000000000000000
0
POINT
8
PNTS
10
1387309.9920000001000000
20
4915376.9019999998000000
30
0.0000000000000000
0
POINT
8
PNTS
10
1387001.1830000000000000
20
4915397.8980000000000000
30
0.0000000000000000
0
POINT
8
PNTS
10
1387052.0100000000000000
20
4915524.4859999996000000
30
0.0000000000000000
0
POINT
8
PNTS
10
1386765.7190000000000000
20
4915618.2460000003000000
30
0.0000000000000000
0
POINT
8
PNTS
10
1386912.5889999999000000
20
4915683.1780000003000000
30
0.0000000000000000
0
POINT
8
PNTS
10
1386837.4669999999000000
20
4915960.8020000001000000
30
0.0000000000000000
0
POINT
8
PNTS
10
1386959.1820000000000000
20
4915895.8279999997000000
30
0.0000000000000000
0
POINT
8
PNTS
10
1386907.9939999999000000
20
4916160.0769999996000000
30
0.0000000000000000
0
POINT
8
PNTS
10
1387143.9010000001000000
20
4916167.4869999997000000
30
0.0000000000000000
0
POINT
8
PNTS
10
1386874.3910000001000000
20
4916418.7199999997000000
30
0.0000000000000000
0
POINT
8
PNTS
10
1387109.2130000000000000
20
4916524.5990000004000000
30
0.0000000000000000
0
POINT
8
PNTS
10
1386780.3489999999000000
20
4916535.3159999996000000
30
0.0000000000000000
0
POINT
8
PNTS
10
1386906.9299999999000000
20
4916776.5520000001000000
30
0.0000000000000000
0
POINT
8
PNTS
10
1386279.4080000001000000
20
4916559.3830000004000000
30
0.0000000000000000
0
POINT
8
PNTS
10
1386842.3080000000000000
20
4916825.6880000001000000
30
0.0000000000000000
0
POINT
8
PNTS
10
1386283.8770000001000000
20
4916881.0829999996000000
30
0.0000000000000000
0
POINT
8
PNTS
10
1386785.4250000000000000
20
4917123.7790000001000000
30
0.0000000000000000
0
POINT
8
PNTS
10
1386181.4669999999000000
20
4917023.8849999998000000
30
0.0000000000000000
0
POINT
8
PNTS
10
1386757.9010000001000000
20
4917517.9840000002000000
30
0.0000000000000000
0
POINT
8
PNTS
10
1385856.6569999999000000
20
4917115.8439999996000000
30
0.0000000000000000
0
POINT
8
PNTS
10
1386360.0750000000000000
20
4917568.6250000000000000
30
0.0000000000000000
0
POINT
8
PNTS
10
1386023.3149999999000000
20
4917096.1639999999000000
30
0.0000000000000000
0
POINT
8
PNTS
10
1386131.3610000000000000
20
4917924.2999999998000000
30
0.0000000000000000
0
POINT
8
PNTS
10
1385360.2709999999000000
20
4917439.0990000004000000
30
0.0000000000000000
0
POINT
8
PNTS
10
1385833.0100000000000000
20
4917717.0319999997000000
30
0.0000000000000000
0
POINT
8
PNTS
10
1385386.6880000001000000
20
4917739.9309999999000000
30
0.0000000000000000
0
POINT
8
PNTS
10
1385643.3670000001000000
20
4917882.0310000004000000
30
0.0000000000000000
0
POINT
8
PNTS
10
1385292.4490000000000000
20
4918177.5010000002000000
30
0.0000000000000000
0
POINT
8
PNTS
10
1385583.2790000001000000
20
4918181.6760000000000000
30
0.0000000000000000
0
POINT
8
PNTS
10
1385456.5140000000000000
20
4918621.9400000004000000
30
0.0000000000000000
0
POINT
8
PNTS
10
1385669.1159999999000000
20
4918465.3980000000000000
30
0.0000000000000000
0
POINT
8
PNTS
10
1385391.2579999999000000
20
4918437.9460000005000000
30
0.0000000000000000
0
POINT
8
PNTS
10
1385561.0319999999000000
20
4918309.1770000001000000
30
0.0000000000000000
0
POINT
8
PNTS
10
1385603.4439999999000000
20
4918675.1940000001000000
30
0.0000000000000000
0
POINT
8
PNTS
10
1385829.1350000000000000
20
4918589.4720000001000000
30
0.0000000000000000
0
POINT
8
PNTS
10
1385946.7309999999000000
20
4919286.6720000003000000
30
0.0000000000000000
0
POINT
8
PNTS
10
1386074.2630000000000000
20
4919228.6789999995000000
30
0.0000000000000000
0
POINT
8
PNTS
10
1386664.0379999999000000
20
4919552.2450000001000000
30
0.0000000000000000
0
POINT
8
PNTS
10
1386672.0610000000000000
20
4919435.3880000003000000
30
0.0000000000000000
0
POINT
8
PNTS
10
1385814.5370000000000000
20
4918978.3039999995000000
30
0.0000000000000000
0
POINT
8
PNTS
10
1385925.4299999999000000
20
4918934.8859999999000000
30
0.0000000000000000
0
POINT
8
PNTS
10
1384246.8502212651000000
20
4908845.7825315874000000
30
9.8646830953244624
0
POINT
8
PNTS
10
1384250.6099525797000000
20
4908861.1769204121000000
30
7.0611573870415034
0
POINT
8
PNTS
10
1384229.6692078041000000
20
4908860.9121859614000000
30
7.4271216418699755
0
POINT
8
PNTS
10
1384233.7468757876000000
20
4908856.3824989507000000
30
7.3285241957989165
0
POINT
8
PNTS
10
1384217.9203834864000000
20
4908873.1662339037000000
30
7.7334554029014022
0
POINT
8
PNTS
10
1384202.1610231295000000
20
4908887.5737619875000000
30
7.8707902053178387
0
POINT
8
PNTS
10
1384183.5024988260000000
20
4908903.7844608827000000
30
7.8057281137745242
0
POINT
8
PNTS
10
1384167.6377088332000000
20
4908919.4853722788000000
30
7.9391041284386947
0
POINT
8
PNTS
10
1384160.2260998026000000
20
4908926.0997570110000000
30
6.7766566043327243
0
POINT
8
PNTS
10
1384153.2975151741000000
20
4908932.9586210018000000
30
8.3320011676912262
0
POINT
8
PNTS
10
1384148.9344811044000000
20
4908935.9869840089000000
30
8.5475734001546577
0
POINT
8
PNTS
10
1384131.9803628689000000
20
4908952.8188723726000000
30
7.6629269682766488
0
POINT
8
PNTS
10
1384121.2933782744000000
20
4908963.8800776117000000
30
7.6813960849185019
0
POINT
8
PNTS
10
1384104.8938576756000000
20
4908979.7557831835000000
30
8.2463060765653342
0
POINT
8
PNTS
10
1384088.0498828008000000
20
4908994.5127798980000000
30
8.2033775178513668
0
POINT
8
PNTS
10
1384071.0633083261000000
20
4909010.1474712426000000
30
8.0802969639889195
0
POINT
8
PNTS
10
1384055.6974611441000000
20
4909025.6965636853000000
30
8.6014381100321913
0
POINT
8
PNTS
10
1384032.6909656692000000
20
4909046.6213447042000000
30
9.0203311809575872
0
POINT
8
PNTS
10
1384016.5495900193000000
20
4909056.8482073704000000
30
5.3858681280088234
0
POINT
8
PNTS
10
1384468.8228369923000000
20
4909062.3525300641000000
30
10.0025234468996300
0
POINT
8
PNTS
10
1384462.6993141437000000
20
4909066.2477058237000000
30
7.9133059207649206
0
POINT
8
PNTS
10
1384444.0380384526000000
20
4909077.4673571764000000
30
7.7736901488908865
0
POINT
8
PNTS
10
1384424.2673643166000000
20
4909088.8298148848000000
30
7.9164821561480121
0
POINT
8
PNTS
10
1384406.1070344723000000
20
4909100.4260365497000000
30
8.0911184274982251
0
POINT
8
PNTS
10
1384386.0947751845000000
20
4909112.2054429334000000
30
8.3021081765065503
0
POINT
8
PNTS
10
1384368.5827559021000000
20
4909123.4774109591000000
30
8.9406149240853043
0
POINT
8
PNTS
10
1384346.9926215869000000
20
4909134.7893471969000000
30
8.1977052918185365
0
POINT
8
PNTS
10
1384328.2138762847000000
20
4909146.9618582539000000
30
8.0191138498713563
0
POINT
8
PNTS
10
1384313.9630220865000000
20
4909157.5702891955000000
30
6.4723487233830337
0
POINT
8
PNTS
10
1384307.0913895760000000
20
4909159.7632071227000000
30
7.7455998353883366
0
POINT
8
PNTS
10
1384286.7421359525000000
20
4909172.5828769030000000
30
7.0050791215069630
0
POINT
8
PNTS
10
1384264.9503470121000000
20
4909184.1869411776000000
30
7.0376649303586749
0
POINT
8
PNTS
10
1384247.9660135433000000
20
4909195.8357786955000000
30
7.0787222479120970
0
POINT
8
PNTS
10
1384226.7415375912000000
20
4909207.4194630738000000
30
7.3486625727681707
0
POINT
8
PNTS
10
1384211.0755043598000000
20
4909216.9656022564000000
30
8.2087302827895030
0
POINT
8
PNTS
10
1384194.7914037323000000
20
4909228.0698035304000000
30
8.6237845032067533
0
POINT
8
PNTS
10
1384175.9167838048000000
20
4909239.6493854802000000
30
8.6436871330064662
0
POINT
8
PNTS
10
1384163.7554865468000000
20
4909245.1355944397000000
30
9.2270426579769200
0
POINT
8
PNTS
10
1384147.4921108426000000
20
4909256.3421177827000000
30
8.3647573754038920
0
POINT
8
PNTS
10
1384128.2724722046000000
20
4909267.9462245367000000
30
8.1315349481940498
0
POINT
8
PNTS
10
1384107.8276198395000000
20
4909277.3898956114000000
30
7.1134288818640536
0
POINT
8
PNTS
10
1384092.0827216727000000
20
4909287.1363795437000000
30
8.0229951164642763
0
POINT
8
PNTS
10
1384083.2687532757000000
20
4909294.1829178482000000
30
5.8237441280799942
0
POINT
8
PNTS
10
1384661.0076390293000000
20
4909248.4627407202000000
30
9.9982725437629760
0
POINT
8
PNTS
10
1384651.5592729505000000
20
4909255.9071396813000000
30
6.7236296386760372
0
POINT
8
PNTS
10
1384650.1384013710000000
20
4909257.4781417735000000
30
7.0700074278817908
0
POINT
8
PNTS
10
1384631.2413163779000000
20
4909274.2281938978000000
30
6.9229968222825180
0
POINT
8
PNTS
10
1384614.5035885931000000
20
4909287.7157247839000000
30
7.1369101992984376
0
POINT
8
PNTS
10
1384597.9836274663000000
20
4909302.0334829343000000
30
7.0872054009579823
0
POINT
8
PNTS
10
1384580.7236122228000000
20
4909316.5577676333000000
30
7.1544355105543325
0
POINT
8
PNTS
10
1384562.9204185549000000
20
4909331.5372242145000000
30
7.2769936980925198
0
POINT
8
PNTS
10
1384547.6691715124000000
20
4909342.5814390704000000
30
7.2621939199919936
0
POINT
8
PNTS
10
1384532.2493959628000000
20
4909358.4247472845000000
30
7.2007778927483361
0
POINT
8
PNTS
10
1384515.9701574484000000
20
4909371.0824091751000000
30
7.1086405107466444
0
POINT
8
PNTS
10
1384503.7561092135000000
20
4909381.8157575186000000
30
7.1860246442934255
0
POINT
8
PNTS
10
1384486.9397068806000000
20
4909395.8550641080000000
30
7.4228337586385358
0
POINT
8
PNTS
10
1384468.8355767836000000
20
4909410.9124298114000000
30
8.5341299694720689
0
POINT
8
PNTS
10
1384455.0678499748000000
20
4909422.2830213979000000
30
8.7782001608292681
0
POINT
8
PNTS
10
1384438.0529653030000000
20
4909436.2699926402000000
30
8.9793640598073257
0
POINT
8
PNTS
10
1384422.0152236423000000
20
4909450.3192552309000000
30
8.9370367697989330
0
POINT
8
PNTS
10
1384404.8795767291000000
20
4909464.1285441592000000
30
8.7735219725307800
0
POINT
8
PNTS
10
1384386.8734503731000000
20
4909480.3054006444000000
30
9.0514295938169642
0
POINT
8
PNTS
10
1384375.7336777127000000
20
4909489.5702140601000000
30
9.2487228196883748
0
POINT
8
PNTS
10
1384366.2412580648000000
20
4909497.5521977525000000
30
12.8883856021478880
0
POINT
8
PNTS
10
1384350.8985146615000000
20
4909511.4192171860000000
30
14.6417511557421350
0
POINT
8
PNTS
10
1384334.4651448454000000
20
4909524.9072809201000000
30
15.7108257255445650
0
POINT
8
PNTS
10
1384316.3129447629000000
20
4909538.4024297483000000
30
16.2192573509553240
0
POINT
8
PNTS
10
1384299.8450486590000000
20
4909552.2716529863000000
30
17.0622862392535380
0
POINT
8
PNTS
10
1384283.9028411172000000
20
4909567.2984629795000000
30
18.0332545451217290
0
POINT
8
PNTS
10
1384265.1878003781000000
20
4909582.2789660376000000
30
18.2294653364635120
0
POINT
8
PNTS
10
1384242.9030546106000000
20
4909601.6698479997000000
30
7.8565452736826513
0
POINT
8
PNTS
10
1384231.2399905587000000
20
4909611.6888495358000000
30
7.9208475712315138
0
POINT
8
PNTS
10
1384213.5055679381000000
20
4909625.7128404882000000
30
8.8614032038854802
0
POINT
8
PNTS
10
1384196.7206934616000000
20
4909638.5792125436000000
30
9.2756771604715524
0
POINT
8
PNTS
10
1384179.8241559176000000
20
4909654.5120725268000000
30
8.6706495259084750
0
POINT
8
PNTS
10
1384163.0436638258000000
20
4909666.3847484961000000
30
8.6135411052551074
0
POINT
8
PNTS
10
1384153.1986403083000000
20
4909673.3453564188000000
30
8.4388645545780410
0
POINT
8
PNTS
10
1384148.4340163353000000
20
4909685.0557294711000000
30
5.2178208925175102
0
POINT
8
PNTS
10
1383413.9982412136000000
20
4908075.2164744744000000
30
6.1444922935811874
0
POINT
8
PNTS
10
1383398.3899714635000000
20
4908090.9545406178000000
30
6.1705262864249431
0
POINT
8
PNTS
10
1383381.4351318832000000
20
4908106.8754968978000000
30
6.2619338487580052
0
POINT
8
PNTS
10
1383364.7450523269000000
20
4908122.8166225217000000
30
6.3046610823282263
0
POINT
8
PNTS
10
1383348.4653143499000000
20
4908139.3865867984000000
30
6.1771469808023927
0
POINT
8
PNTS
10
1383331.0596962944000000
20
4908155.9051182801000000
30
6.0742964867417424
0
POINT
8
PNTS
10
1383313.2974502591000000
20
4908172.3902324429000000
30
6.1517634993570374
0
POINT
8
PNTS
10
1383296.0250359545000000
20
4908189.2053031437000000
30
6.2766787364016405
0
POINT
8
PNTS
10
1383274.2040022921000000
20
4908208.7745580776000000
30
6.1838187587634721
0
POINT
8
PNTS
10
1383268.0502551901000000
20
4908215.8905103616000000
30
6.5808572541339583
0
POINT
8
PNTS
10
1383255.0539366230000000
20
4908228.5405316893000000
30
6.1913468643408986
0
POINT
8
PNTS
10
1383238.0991011865000000
20
4908244.8916810285000000
30
6.2034735004669690
0
POINT
8
PNTS
10
1383220.6618573226000000
20
4908261.3593683075000000
30
6.2135995778548736
0
POINT
8
PNTS
10
1383202.0165618269000000
20
4908280.0098272907000000
30
6.2258985826446214
0
POINT
8
PNTS
10
1383187.5523896746000000
20
4908293.5212882301000000
30
6.2788214348043754
0
POINT
8
PNTS
10
1383172.5086653198000000
20
4908307.9934879681000000
30
6.3490314444921383
0
POINT
8
PNTS
10
1383157.0043024579000000
20
4908323.5680367481000000
30
6.3366351108773369
0
POINT
8
PNTS
10
1383142.3755030087000000
20
4908338.1870891675000000
30
6.3221959423095386
0
POINT
8
PNTS
10
1383126.1726719534000000
20
4908352.9873130545000000
30
6.1828970061260362
0
POINT
8
PNTS
10
1383110.3596603060000000
20
4908366.6723449696000000
30
6.3201928205681934
0
POINT
8
PNTS
10
1383095.1992612530000000
20
4908383.7524189567000000
30
6.3590486478435686
0
POINT
8
PNTS
10
1383079.6919698138000000
20
4908398.4989456590000000
30
6.4246313109365829
0
POINT
8
PNTS
10
1383066.8823193198000000
20
4908411.7915716814000000
30
5.6841655770772412
0
POINT
8
PNTS
10
1383065.1507124067000000
20
4908412.1700806189000000
30
6.4598362231683097
0
POINT
8
PNTS
10
1383047.5853090640000000
20
4908428.8737379350000000
30
6.4862332868792221
0
POINT
8
PNTS
10
1383031.4145896134000000
20
4908444.0061001144000000
30
6.4897329081442212
0
POINT
8
PNTS
10
1383015.3102473954000000
20
4908459.6862662826000000
30
6.6958230833319394
0
POINT
8
PNTS
10
1383000.2916825775000000
20
4908475.4168143682000000
30
6.9694737844264978
0
POINT
8
PNTS
10
1382984.1446900051000000
20
4908490.4389720103000000
30
7.7395281766463100
0
POINT
8
PNTS
10
1382966.1607801609000000
20
4908507.3620766439000000
30
8.3442080456637253
0
POINT
8
PNTS
10
1382953.0720596113000000
20
4908520.1463588262000000
30
8.5762878423662627
0
POINT
8
PNTS
10
1382938.3860388421000000
20
4908534.5761994477000000
30
8.7016774463348572
0
POINT
8
PNTS
10
1382922.1818692260000000
20
4908549.9225969631000000
30
8.8112773383997318
0
POINT
8
PNTS
10
1382905.5758280200000000
20
4908568.7399355099000000
30
8.3791880155205849
0
POINT
8
PNTS
10
1382904.0763608098000000
20
4908576.3413449693000000
30
5.3407725100729806
0
POINT
8
PNTS
10
1379459.9020000000000000
20
4904051.1299999999000000
30
0.0000000000000000
0
POINT
8
PNTS
10
1379618.2120000001000000
20
4903677.3720000004000000
30
0.0000000000000000
0
POINT
8
PNTS
10
1379816.4220000000000000
20
4904681.7139999997000000
30
0.0000000000000000
0
POINT
8
PNTS
10
1380314.2900000000000000
20
4904268.1100000003000000
30
0.0000000000000000
0
POINT
8
PNTS
10
1380366.6529999999000000
20
4904194.8080000002000000
30
0.0000000000000000
0
POINT
8
PNTS
10
1380988.3799999999000000
20
4904944.1619999995000000
30
0.0000000000000000
0
POINT
8
PNTS
10
1381158.6420000000000000
20
4904770.7330000000000000
30
0.0000000000000000
0
POINT
8
PNTS
10
1381358.6050000000000000
20
4905497.5449999999000000
30
0.0000000000000000
0
POINT
8
PNTS
10
1381546.9609999999000000
20
4905130.6090000002000000
30
0.0000000000000000
0
POINT
8
PNTS
10
1381835.0009999999000000
20
4905567.5740000000000000
30
0.0000000000000000
0
POINT
8
PNTS
10
1381897.6599999999000000
20
4905482.5740000000000000
30
0.0000000000000000
0
POINT
8
PNTS
10
1382253.5549999999000000
20
4906122.0820000004000000
30
0.0000000000000000
0
POINT
8
PNTS
10
1382452.5750000000000000
20
4905981.2500000000000000
30
0.0000000000000000
0
POINT
8
PNTS
10
1382426.3000000000000000
20
4906400.6250000000000000
30
0.0000000000000000
0
POINT
8
PNTS
10
1382486.6070000001000000
20
4906826.3389999997000000
30
0.0000000000000000
0
POINT
8
PNTS
10
1382810.7520000001000000
20
4906633.0829999996000000
30
0.0000000000000000
0
POINT
8
PNTS
10
1382449.1760000000000000
20
4906901.1409999998000000
30
0.0000000000000000
0
POINT
8
PNTS
10
1382935.9520000000000000
20
4906927.4060000004000000
30
0.0000000000000000
0
POINT
8
PNTS
10
1382679.1560000000000000
20
4907078.5559999999000000
30
0.0000000000000000
0
POINT
8
PNTS
10
1382442.1140000001000000
20
4907091.9210000001000000
30
0.0000000000000000
0
POINT
8
PNTS
10
1382290.1880000001000000
20
4907203.2670000000000000
30
0.0000000000000000
0
POINT
8
PNTS
10
1382662.5819999999000000
20
4907584.9600000000000000
30
0.0000000000000000
0
POINT
8
PNTS
10
1382582.7810000000000000
20
4907942.9709999999000000
30
0.0000000000000000
0
POINT
8
PNTS
10
1382832.0270000000000000
20
4908638.8490000004000000
30
0.0000000000000000
0
POINT
8
PNTS
10
1383816.9029999999000000
20
4909250.7019999996000000
30
0.0000000000000000
0
POINT
8
PNTS
10
1383988.1310000001000000
20
4909352.6100000003000000
30
0.0000000000000000
0
POINT
8
PNTS
10
1384088.1150000000000000
20
4909733.4260000000000000
30
0.0000000000000000
0
POINT
8
PNTS
10
1384639.6620000000000000
20
4910142.6289999997000000
30
0.0000000000000000
0
POINT
8
PNTS
10
1385128.2300000000000000
20
4910614.5609999998000000
30
0.0000000000000000
0
POINT
8
PNTS
10
1385422.3850000000000000
20
4910914.4110000003000000
30
0.0000000000000000
0
POINT
8
PNTS
10
1385665.0989999999000000
20
4911084.6459999997000000
30
0.0000000000000000
0
POINT
8
PNTS
10
1385778.3840000001000000
20
4911625.4150000000000000
30
0.0000000000000000
0
POINT
8
PNTS
10
1386180.6830000000000000
20
4911683.4720000001000000
30
0.0000000000000000
0
POINT
8
PNTS
10
1386704.1569999999000000
20
4911854.3750000000000000
30
0.0000000000000000
0
POINT
8
PNTS
10
1387069.9930000000000000
20
4912008.4720000001000000
30
0.0000000000000000
0
POINT
8
PNTS
10
1384639.0000000000000000
20
4910142.0000000000000000
30
0.0000000000000000
0
ENDSEC
0
EOF
